<svg  viewBox="0 0 622 370" fill="none" xmlns="http://www.w3.org/2000/svg">
<rect width="622" height="352" rx="10" fill="#fafafa" fill-opacity="0.02"/>
<path d="M24.792 39.552C24.792 37.888 25.152 36.408 25.872 35.112C26.592 33.8 27.592 32.784 28.872 32.064C30.168 31.328 31.632 30.96 33.264 30.96C35.264 30.96 36.976 31.488 38.4 32.544C39.824 33.6 40.776 35.04 41.256 36.864H36.744C36.408 36.16 35.928 35.624 35.304 35.256C34.696 34.888 34 34.704 33.216 34.704C31.952 34.704 30.928 35.144 30.144 36.024C29.36 36.904 28.968 38.08 28.968 39.552C28.968 41.024 29.36 42.2 30.144 43.08C30.928 43.96 31.952 44.4 33.216 44.4C34 44.4 34.696 44.216 35.304 43.848C35.928 43.48 36.408 42.944 36.744 42.24H41.256C40.776 44.064 39.824 45.504 38.4 46.56C36.976 47.6 35.264 48.12 33.264 48.12C31.632 48.12 30.168 47.76 28.872 47.04C27.592 46.304 26.592 45.288 25.872 43.992C25.152 42.696 24.792 41.216 24.792 39.552ZM49.8653 48.192C48.5533 48.192 47.3693 47.912 46.3133 47.352C45.2733 46.792 44.4493 45.992 43.8413 44.952C43.2493 43.912 42.9533 42.696 42.9533 41.304C42.9533 39.928 43.2573 38.72 43.8652 37.68C44.4733 36.624 45.3053 35.816 46.3613 35.256C47.4173 34.696 48.6013 34.416 49.9133 34.416C51.2253 34.416 52.4093 34.696 53.4653 35.256C54.5213 35.816 55.3533 36.624 55.9613 37.68C56.5693 38.72 56.8733 39.928 56.8733 41.304C56.8733 42.68 56.5613 43.896 55.9373 44.952C55.3293 45.992 54.4893 46.792 53.4173 47.352C52.3613 47.912 51.1773 48.192 49.8653 48.192ZM49.8653 44.64C50.6493 44.64 51.3133 44.352 51.8573 43.776C52.4173 43.2 52.6973 42.376 52.6973 41.304C52.6973 40.232 52.4253 39.408 51.8813 38.832C51.3533 38.256 50.6973 37.968 49.9133 37.968C49.1133 37.968 48.4493 38.256 47.9213 38.832C47.3933 39.392 47.1293 40.216 47.1293 41.304C47.1293 42.376 47.3853 43.2 47.8973 43.776C48.4253 44.352 49.0813 44.64 49.8653 44.64ZM63.1545 30.24V48H59.0505V30.24H63.1545ZM65.3126 41.28C65.3126 39.904 65.5686 38.696 66.0806 37.656C66.6086 36.616 67.3206 35.816 68.2166 35.256C69.1126 34.696 70.1126 34.416 71.2166 34.416C72.1606 34.416 72.9846 34.608 73.6886 34.992C74.4086 35.376 74.9606 35.88 75.3446 36.504V34.608H79.4486V48H75.3446V46.104C74.9446 46.728 74.3846 47.232 73.6646 47.616C72.9606 48 72.1366 48.192 71.1926 48.192C70.1046 48.192 69.1126 47.912 68.2166 47.352C67.3206 46.776 66.6086 45.968 66.0806 44.928C65.5686 43.872 65.3126 42.656 65.3126 41.28ZM75.3446 41.304C75.3446 40.28 75.0566 39.472 74.4806 38.88C73.9206 38.288 73.2326 37.992 72.4166 37.992C71.6006 37.992 70.9046 38.288 70.3286 38.88C69.7686 39.456 69.4886 40.256 69.4886 41.28C69.4886 42.304 69.7686 43.12 70.3286 43.728C70.9046 44.32 71.6006 44.616 72.4166 44.616C73.2326 44.616 73.9206 44.32 74.4806 43.728C75.0566 43.136 75.3446 42.328 75.3446 41.304ZM86.5217 36.504C86.9057 35.88 87.4577 35.376 88.1777 34.992C88.8977 34.608 89.7217 34.416 90.6497 34.416C91.7537 34.416 92.7537 34.696 93.6497 35.256C94.5457 35.816 95.2497 36.616 95.7617 37.656C96.2897 38.696 96.5537 39.904 96.5537 41.28C96.5537 42.656 96.2897 43.872 95.7617 44.928C95.2497 45.968 94.5457 46.776 93.6497 47.352C92.7537 47.912 91.7537 48.192 90.6497 48.192C89.7057 48.192 88.8817 48.008 88.1777 47.64C87.4737 47.256 86.9217 46.752 86.5217 46.128V48H82.4177V30.24H86.5217V36.504ZM92.3777 41.28C92.3777 40.256 92.0897 39.456 91.5137 38.88C90.9537 38.288 90.2577 37.992 89.4257 37.992C88.6097 37.992 87.9137 38.288 87.3377 38.88C86.7777 39.472 86.4977 40.28 86.4977 41.304C86.4977 42.328 86.7777 43.136 87.3377 43.728C87.9137 44.32 88.6097 44.616 89.4257 44.616C90.2417 44.616 90.9377 44.32 91.5137 43.728C92.0897 43.12 92.3777 42.304 92.3777 41.28ZM104.803 48.192C103.491 48.192 102.307 47.912 101.251 47.352C100.211 46.792 99.3868 45.992 98.7788 44.952C98.1868 43.912 97.8908 42.696 97.8908 41.304C97.8908 39.928 98.1948 38.72 98.8027 37.68C99.4108 36.624 100.243 35.816 101.299 35.256C102.355 34.696 103.539 34.416 104.851 34.416C106.163 34.416 107.347 34.696 108.403 35.256C109.459 35.816 110.291 36.624 110.899 37.68C111.507 38.72 111.811 39.928 111.811 41.304C111.811 42.68 111.499 43.896 110.875 44.952C110.267 45.992 109.427 46.792 108.355 47.352C107.299 47.912 106.115 48.192 104.803 48.192ZM104.803 44.64C105.587 44.64 106.251 44.352 106.795 43.776C107.355 43.2 107.635 42.376 107.635 41.304C107.635 40.232 107.363 39.408 106.819 38.832C106.291 38.256 105.635 37.968 104.851 37.968C104.051 37.968 103.387 38.256 102.859 38.832C102.331 39.392 102.067 40.216 102.067 41.304C102.067 42.376 102.323 43.2 102.835 43.776C103.363 44.352 104.019 44.64 104.803 44.64ZM118.092 36.84C118.572 36.104 119.172 35.528 119.892 35.112C120.612 34.68 121.412 34.464 122.292 34.464V38.808H121.164C120.14 38.808 119.372 39.032 118.86 39.48C118.348 39.912 118.092 40.68 118.092 41.784V48H113.988V34.608H118.092V36.84ZM123.438 41.28C123.438 39.904 123.694 38.696 124.206 37.656C124.734 36.616 125.446 35.816 126.342 35.256C127.238 34.696 128.238 34.416 129.342 34.416C130.286 34.416 131.11 34.608 131.814 34.992C132.534 35.376 133.086 35.88 133.47 36.504V34.608H137.574V48H133.47V46.104C133.07 46.728 132.51 47.232 131.79 47.616C131.086 48 130.262 48.192 129.318 48.192C128.23 48.192 127.238 47.912 126.342 47.352C125.446 46.776 124.734 45.968 124.206 44.928C123.694 43.872 123.438 42.656 123.438 41.28ZM133.47 41.304C133.47 40.28 133.182 39.472 132.606 38.88C132.046 38.288 131.358 37.992 130.542 37.992C129.726 37.992 129.03 38.288 128.454 38.88C127.894 39.456 127.614 40.256 127.614 41.28C127.614 42.304 127.894 43.12 128.454 43.728C129.03 44.32 129.726 44.616 130.542 44.616C131.358 44.616 132.046 44.32 132.606 43.728C133.182 43.136 133.47 42.328 133.47 41.304ZM139.727 41.304C139.727 39.912 140.007 38.696 140.567 37.656C141.143 36.616 141.935 35.816 142.943 35.256C143.967 34.696 145.135 34.416 146.447 34.416C148.127 34.416 149.527 34.856 150.647 35.736C151.783 36.616 152.527 37.856 152.879 39.456H148.511C148.143 38.432 147.431 37.92 146.375 37.92C145.623 37.92 145.023 38.216 144.575 38.808C144.127 39.384 143.903 40.216 143.903 41.304C143.903 42.392 144.127 43.232 144.575 43.824C145.023 44.4 145.623 44.688 146.375 44.688C147.431 44.688 148.143 44.176 148.511 43.152H152.879C152.527 44.72 151.783 45.952 150.647 46.848C149.511 47.744 148.111 48.192 146.447 48.192C145.135 48.192 143.967 47.912 142.943 47.352C141.935 46.792 141.143 45.992 140.567 44.952C140.007 43.912 139.727 42.696 139.727 41.304ZM157.138 33.216C156.418 33.216 155.826 33.008 155.362 32.592C154.914 32.16 154.69 31.632 154.69 31.008C154.69 30.368 154.914 29.84 155.362 29.424C155.826 28.992 156.418 28.776 157.138 28.776C157.842 28.776 158.418 28.992 158.866 29.424C159.33 29.84 159.562 30.368 159.562 31.008C159.562 31.632 159.33 32.16 158.866 32.592C158.418 33.008 157.842 33.216 157.138 33.216ZM159.178 34.608V48H155.074V34.608H159.178ZM168.248 48.192C166.936 48.192 165.752 47.912 164.696 47.352C163.656 46.792 162.832 45.992 162.224 44.952C161.632 43.912 161.336 42.696 161.336 41.304C161.336 39.928 161.64 38.72 162.248 37.68C162.856 36.624 163.688 35.816 164.744 35.256C165.8 34.696 166.984 34.416 168.296 34.416C169.608 34.416 170.792 34.696 171.848 35.256C172.904 35.816 173.736 36.624 174.344 37.68C174.952 38.72 175.256 39.928 175.256 41.304C175.256 42.68 174.944 43.896 174.32 44.952C173.712 45.992 172.872 46.792 171.8 47.352C170.744 47.912 169.56 48.192 168.248 48.192ZM168.248 44.64C169.032 44.64 169.696 44.352 170.24 43.776C170.8 43.2 171.08 42.376 171.08 41.304C171.08 40.232 170.808 39.408 170.264 38.832C169.736 38.256 169.08 37.968 168.296 37.968C167.496 37.968 166.832 38.256 166.304 38.832C165.776 39.392 165.512 40.216 165.512 41.304C165.512 42.376 165.768 43.2 166.28 43.776C166.808 44.352 167.464 44.64 168.248 44.64ZM185.593 34.464C187.161 34.464 188.409 34.976 189.337 36C190.281 37.008 190.753 38.4 190.753 40.176V48H186.673V40.728C186.673 39.832 186.441 39.136 185.977 38.64C185.513 38.144 184.889 37.896 184.105 37.896C183.321 37.896 182.697 38.144 182.233 38.64C181.769 39.136 181.537 39.832 181.537 40.728V48H177.433V34.608H181.537V36.384C181.953 35.792 182.513 35.328 183.217 34.992C183.921 34.64 184.713 34.464 185.593 34.464ZM206.229 41.088C206.229 41.472 206.205 41.872 206.157 42.288H196.869C196.933 43.12 197.197 43.76 197.661 44.208C198.141 44.64 198.725 44.856 199.413 44.856C200.437 44.856 201.149 44.424 201.549 43.56H205.917C205.693 44.44 205.285 45.232 204.693 45.936C204.117 46.64 203.389 47.192 202.509 47.592C201.629 47.992 200.645 48.192 199.557 48.192C198.245 48.192 197.077 47.912 196.053 47.352C195.029 46.792 194.229 45.992 193.653 44.952C193.077 43.912 192.789 42.696 192.789 41.304C192.789 39.912 193.069 38.696 193.629 37.656C194.205 36.616 195.005 35.816 196.029 35.256C197.053 34.696 198.229 34.416 199.557 34.416C200.853 34.416 202.005 34.688 203.013 35.232C204.021 35.776 204.805 36.552 205.365 37.56C205.941 38.568 206.229 39.744 206.229 41.088ZM202.029 40.008C202.029 39.304 201.789 38.744 201.309 38.328C200.829 37.912 200.229 37.704 199.509 37.704C198.821 37.704 198.237 37.904 197.757 38.304C197.293 38.704 197.005 39.272 196.893 40.008H202.029ZM213.842 48.192C212.674 48.192 211.634 47.992 210.722 47.592C209.81 47.192 209.09 46.648 208.562 45.96C208.034 45.256 207.738 44.472 207.674 43.608H211.73C211.778 44.072 211.994 44.448 212.378 44.736C212.762 45.024 213.234 45.168 213.794 45.168C214.306 45.168 214.698 45.072 214.97 44.88C215.258 44.672 215.402 44.408 215.402 44.088C215.402 43.704 215.202 43.424 214.802 43.248C214.402 43.056 213.754 42.848 212.858 42.624C211.898 42.4 211.098 42.168 210.458 41.928C209.818 41.672 209.266 41.28 208.802 40.752C208.338 40.208 208.106 39.48 208.106 38.568C208.106 37.8 208.314 37.104 208.73 36.48C209.162 35.84 209.786 35.336 210.602 34.968C211.434 34.6 212.418 34.416 213.554 34.416C215.234 34.416 216.554 34.832 217.514 35.664C218.49 36.496 219.05 37.6 219.194 38.976H215.402C215.338 38.512 215.13 38.144 214.778 37.872C214.442 37.6 213.994 37.464 213.434 37.464C212.954 37.464 212.586 37.56 212.33 37.752C212.074 37.928 211.946 38.176 211.946 38.496C211.946 38.88 212.146 39.168 212.546 39.36C212.962 39.552 213.602 39.744 214.466 39.936C215.458 40.192 216.266 40.448 216.89 40.704C217.514 40.944 218.058 41.344 218.522 41.904C219.002 42.448 219.25 43.184 219.266 44.112C219.266 44.896 219.042 45.6 218.594 46.224C218.162 46.832 217.53 47.312 216.698 47.664C215.882 48.016 214.93 48.192 213.842 48.192Z" fill="black"/>
<rect x="477" y="24" width="129" height="32" rx="8" fill="" fill-opacity="0.1"/>
<path d="M493.403 45.098C492.75 45.098 492.162 44.986 491.639 44.762C491.117 44.5287 490.706 44.202 490.407 43.782C490.109 43.362 489.959 42.872 489.959 42.312H491.667C491.705 42.732 491.868 43.0773 492.157 43.348C492.456 43.6187 492.871 43.754 493.403 43.754C493.954 43.754 494.383 43.6233 494.691 43.362C494.999 43.0913 495.153 42.746 495.153 42.326C495.153 41.9993 495.055 41.7333 494.859 41.528C494.673 41.3227 494.435 41.164 494.145 41.052C493.865 40.94 493.473 40.8187 492.969 40.688C492.335 40.52 491.817 40.352 491.415 40.184C491.023 40.0067 490.687 39.736 490.407 39.372C490.127 39.008 489.987 38.5227 489.987 37.916C489.987 37.356 490.127 36.866 490.407 36.446C490.687 36.026 491.079 35.704 491.583 35.48C492.087 35.256 492.671 35.144 493.333 35.144C494.276 35.144 495.046 35.382 495.643 35.858C496.25 36.3247 496.586 36.9687 496.651 37.79H494.887C494.859 37.4353 494.691 37.132 494.383 36.88C494.075 36.628 493.669 36.502 493.165 36.502C492.708 36.502 492.335 36.6187 492.045 36.852C491.756 37.0853 491.611 37.4213 491.611 37.86C491.611 38.1587 491.7 38.406 491.877 38.602C492.064 38.7887 492.297 38.938 492.577 39.05C492.857 39.162 493.24 39.2833 493.725 39.414C494.369 39.5913 494.892 39.7687 495.293 39.946C495.704 40.1233 496.049 40.3987 496.329 40.772C496.619 41.136 496.763 41.626 496.763 42.242C496.763 42.7367 496.628 43.2033 496.357 43.642C496.096 44.0807 495.709 44.4353 495.195 44.706C494.691 44.9673 494.094 45.098 493.403 45.098ZM505.717 40.954C505.717 41.2433 505.698 41.5047 505.661 41.738H499.767C499.813 42.354 500.042 42.8487 500.453 43.222C500.863 43.5953 501.367 43.782 501.965 43.782C502.823 43.782 503.43 43.4227 503.785 42.704H505.507C505.273 43.4133 504.849 43.9967 504.233 44.454C503.626 44.902 502.87 45.126 501.965 45.126C501.227 45.126 500.565 44.9627 499.977 44.636C499.398 44.3 498.941 43.8333 498.605 43.236C498.278 42.6293 498.115 41.9293 498.115 41.136C498.115 40.3427 498.273 39.6473 498.591 39.05C498.917 38.4433 499.37 37.9767 499.949 37.65C500.537 37.3233 501.209 37.16 501.965 37.16C502.693 37.16 503.341 37.3187 503.911 37.636C504.48 37.9533 504.923 38.4013 505.241 38.98C505.558 39.5493 505.717 40.2073 505.717 40.954ZM504.051 40.45C504.041 39.862 503.831 39.3907 503.421 39.036C503.01 38.6813 502.501 38.504 501.895 38.504C501.344 38.504 500.873 38.6813 500.481 39.036C500.089 39.3813 499.855 39.8527 499.781 40.45H504.051ZM516.625 37.16C517.232 37.16 517.773 37.286 518.249 37.538C518.735 37.79 519.113 38.1633 519.383 38.658C519.663 39.1527 519.803 39.75 519.803 40.45V45H518.221V40.688C518.221 39.9973 518.049 39.47 517.703 39.106C517.358 38.7327 516.887 38.546 516.289 38.546C515.692 38.546 515.216 38.7327 514.861 39.106C514.516 39.47 514.343 39.9973 514.343 40.688V45H512.761V40.688C512.761 39.9973 512.589 39.47 512.243 39.106C511.898 38.7327 511.427 38.546 510.829 38.546C510.232 38.546 509.756 38.7327 509.401 39.106C509.056 39.47 508.883 39.9973 508.883 40.688V45H507.287V37.286H508.883V38.168C509.145 37.8507 509.476 37.6033 509.877 37.426C510.279 37.2487 510.708 37.16 511.165 37.16C511.781 37.16 512.332 37.2907 512.817 37.552C513.303 37.8133 513.676 38.1913 513.937 38.686C514.171 38.2193 514.535 37.8507 515.029 37.58C515.524 37.3 516.056 37.16 516.625 37.16ZM521.302 41.108C521.302 40.3333 521.461 39.6473 521.778 39.05C522.105 38.4527 522.544 37.9907 523.094 37.664C523.654 37.328 524.27 37.16 524.942 37.16C525.549 37.16 526.076 37.2813 526.524 37.524C526.982 37.7573 527.346 38.0513 527.616 38.406V37.286H529.226V45H527.616V43.852C527.346 44.216 526.977 44.5193 526.51 44.762C526.044 45.0047 525.512 45.126 524.914 45.126C524.252 45.126 523.645 44.958 523.094 44.622C522.544 44.2767 522.105 43.8007 521.778 43.194C521.461 42.578 521.302 41.8827 521.302 41.108ZM527.616 41.136C527.616 40.604 527.504 40.142 527.28 39.75C527.066 39.358 526.781 39.0593 526.426 38.854C526.072 38.6487 525.689 38.546 525.278 38.546C524.868 38.546 524.485 38.6487 524.13 38.854C523.776 39.05 523.486 39.344 523.262 39.736C523.048 40.1187 522.94 40.576 522.94 41.108C522.94 41.64 523.048 42.1067 523.262 42.508C523.486 42.9093 523.776 43.2173 524.13 43.432C524.494 43.6373 524.877 43.74 525.278 43.74C525.689 43.74 526.072 43.6373 526.426 43.432C526.781 43.2267 527.066 42.928 527.28 42.536C527.504 42.1347 527.616 41.668 527.616 41.136ZM535.214 37.16C535.821 37.16 536.362 37.286 536.838 37.538C537.324 37.79 537.702 38.1633 537.972 38.658C538.243 39.1527 538.378 39.75 538.378 40.45V45H536.796V40.688C536.796 39.9973 536.624 39.47 536.278 39.106C535.933 38.7327 535.462 38.546 534.864 38.546C534.267 38.546 533.791 38.7327 533.436 39.106C533.091 39.47 532.918 39.9973 532.918 40.688V45H531.322V37.286H532.918V38.168C533.18 37.8507 533.511 37.6033 533.912 37.426C534.323 37.2487 534.757 37.16 535.214 37.16ZM539.882 41.108C539.882 40.3333 540.041 39.6473 540.358 39.05C540.685 38.4527 541.124 37.9907 541.674 37.664C542.234 37.328 542.85 37.16 543.522 37.16C544.129 37.16 544.656 37.2813 545.104 37.524C545.562 37.7573 545.926 38.0513 546.196 38.406V37.286H547.806V45H546.196V43.852C545.926 44.216 545.557 44.5193 545.09 44.762C544.624 45.0047 544.092 45.126 543.494 45.126C542.832 45.126 542.225 44.958 541.674 44.622C541.124 44.2767 540.685 43.8007 540.358 43.194C540.041 42.578 539.882 41.8827 539.882 41.108ZM546.196 41.136C546.196 40.604 546.084 40.142 545.86 39.75C545.646 39.358 545.361 39.0593 545.006 38.854C544.652 38.6487 544.269 38.546 543.858 38.546C543.448 38.546 543.065 38.6487 542.71 38.854C542.356 39.05 542.066 39.344 541.842 39.736C541.628 40.1187 541.52 40.576 541.52 41.108C541.52 41.64 541.628 42.1067 541.842 42.508C542.066 42.9093 542.356 43.2173 542.71 43.432C543.074 43.6373 543.457 43.74 543.858 43.74C544.269 43.74 544.652 43.6373 545.006 43.432C545.361 43.2267 545.646 42.928 545.86 42.536C546.084 42.1347 546.196 41.668 546.196 41.136Z" fill="black"/>
<rect x="558.75" y="25.75" width="45.5" height="28.5024" rx="8.25" fill="black"/>
<path d="M574.525 43.012H570.451L569.751 45H568.085L571.571 35.256H573.419L576.905 45H575.225L574.525 43.012ZM574.077 41.71L572.495 37.188L570.899 41.71H574.077ZM582.313 37.16C582.92 37.16 583.461 37.286 583.937 37.538C584.422 37.79 584.8 38.1633 585.071 38.658C585.342 39.1527 585.477 39.75 585.477 40.45V45H583.895V40.688C583.895 39.9973 583.722 39.47 583.377 39.106C583.032 38.7327 582.56 38.546 581.963 38.546C581.366 38.546 580.89 38.7327 580.535 39.106C580.19 39.47 580.017 39.9973 580.017 40.688V45H578.421V37.286H580.017V38.168C580.278 37.8507 580.61 37.6033 581.011 37.426C581.422 37.2487 581.856 37.16 582.313 37.16ZM579.779 36.488C579.854 35.9467 580.031 35.5407 580.311 35.27C580.591 34.99 580.941 34.85 581.361 34.85C581.538 34.85 581.692 34.878 581.823 34.934C581.954 34.99 582.112 35.074 582.299 35.186C582.439 35.2793 582.556 35.3493 582.649 35.396C582.752 35.4427 582.864 35.466 582.985 35.466C583.144 35.466 583.274 35.4193 583.377 35.326C583.489 35.2233 583.559 35.074 583.587 34.878H584.483C584.408 35.4193 584.231 35.83 583.951 36.11C583.671 36.3807 583.321 36.516 582.901 36.516C582.724 36.516 582.565 36.488 582.425 36.432C582.285 36.3667 582.131 36.278 581.963 36.166C581.795 36.0633 581.664 35.9933 581.571 35.956C581.487 35.9093 581.389 35.886 581.277 35.886C581.118 35.886 580.983 35.9373 580.871 36.04C580.768 36.1427 580.703 36.292 580.675 36.488H579.779ZM590.859 45.126C590.131 45.126 589.473 44.9627 588.885 44.636C588.297 44.3 587.835 43.8333 587.499 43.236C587.163 42.6293 586.995 41.9293 586.995 41.136C586.995 40.352 587.168 39.6567 587.513 39.05C587.858 38.4433 588.33 37.9767 588.927 37.65C589.524 37.3233 590.192 37.16 590.929 37.16C591.666 37.16 592.334 37.3233 592.931 37.65C593.528 37.9767 594 38.4433 594.345 39.05C594.69 39.6567 594.863 40.352 594.863 41.136C594.863 41.92 594.686 42.6153 594.331 43.222C593.976 43.8287 593.491 44.3 592.875 44.636C592.268 44.9627 591.596 45.126 590.859 45.126ZM590.859 43.74C591.27 43.74 591.652 43.642 592.007 43.446C592.371 43.25 592.665 42.956 592.889 42.564C593.113 42.172 593.225 41.696 593.225 41.136C593.225 40.576 593.118 40.1047 592.903 39.722C592.688 39.33 592.404 39.036 592.049 38.84C591.694 38.644 591.312 38.546 590.901 38.546C590.49 38.546 590.108 38.644 589.753 38.84C589.408 39.036 589.132 39.33 588.927 39.722C588.722 40.1047 588.619 40.576 588.619 41.136C588.619 41.9667 588.829 42.6107 589.249 43.068C589.678 43.516 590.215 43.74 590.859 43.74Z" fill="white"/>
<rect x="558.75" y="25.75" width="45.5" height="28.5024" rx="8.25" stroke="#E9E9E9" stroke-width="0.5"/>
<path d="M122.685 313.336C120.885 321.528 126.071 329.73 134.424 330.494C155.746 332.446 177.303 328.735 196.869 319.607C216.435 310.478 233.129 296.344 245.333 278.751C250.114 271.859 247.161 262.615 239.727 258.731C232.292 254.847 223.21 257.825 218.146 264.512C209.233 276.282 197.544 285.774 184.027 292.08C170.51 298.386 155.726 301.245 140.981 300.513C132.603 300.097 124.485 305.143 122.685 313.336Z" fill="#C4C4C4"/>
<path d="M145.5 315.812C145.5 324.2 138.674 331.098 130.352 330.052C116.972 328.371 103.93 324.469 91.772 318.475C75.06 310.235 60.4669 298.263 49.1213 283.482C37.7756 268.702 29.9813 251.51 26.3412 233.237C22.701 214.963 23.3125 196.097 28.1284 178.097C32.9442 160.097 41.8354 143.446 54.1144 129.432C66.3934 115.417 81.7312 104.414 98.9417 97.2745C116.152 90.1344 134.774 87.0484 153.368 88.255C166.895 89.1328 180.143 92.2654 192.574 97.4899C200.307 100.74 202.777 110.124 198.588 117.391C194.4 124.659 185.137 127.02 177.276 124.095C168.991 121.012 160.276 119.142 151.401 118.566C137.456 117.661 123.489 119.976 110.581 125.331C97.6734 130.686 86.17 138.938 76.9608 149.449C67.7516 159.96 61.0832 172.448 57.4713 185.948C53.8594 199.447 53.4008 213.597 56.1309 227.302C58.861 241.008 64.7067 253.902 73.2159 264.987C81.7252 276.072 92.67 285.052 105.204 291.231C113.181 295.164 121.665 297.896 130.383 299.362C138.654 300.754 145.5 307.425 145.5 315.812Z" fill="#E2B950"/>
<path d="M127.335 104.751C125.902 96.4864 131.449 88.524 139.828 88.1323C160.339 87.1736 180.849 91.4274 199.4 100.61C222.508 112.048 241.378 130.541 253.28 153.413C265.182 176.286 269.5 202.352 265.608 227.84C262.483 248.302 254.198 267.54 241.643 283.789C236.514 290.426 226.81 290.4 220.864 284.484C214.918 278.568 215.018 269.01 219.866 262.164C228.02 250.65 233.43 237.339 235.581 223.255C238.5 204.139 235.262 184.589 226.335 167.435C217.408 150.281 203.256 136.411 185.925 127.832C173.156 121.512 159.15 118.305 145.041 118.376C136.653 118.418 128.768 113.015 127.335 104.751Z" fill="#707070"/>
<path d="M350.474 128.38H343.774V132.36C344.054 131.987 344.467 131.673 345.014 131.42C345.574 131.167 346.167 131.04 346.794 131.04C347.914 131.04 348.82 131.28 349.514 131.76C350.22 132.24 350.72 132.847 351.014 133.58C351.32 134.313 351.474 135.087 351.474 135.9C351.474 136.887 351.28 137.767 350.894 138.54C350.52 139.3 349.954 139.9 349.194 140.34C348.447 140.78 347.527 141 346.434 141C344.98 141 343.814 140.64 342.934 139.92C342.054 139.2 341.527 138.247 341.354 137.06H343.574C343.72 137.687 344.047 138.187 344.554 138.56C345.06 138.92 345.694 139.1 346.454 139.1C347.4 139.1 348.107 138.813 348.574 138.24C349.054 137.667 349.294 136.907 349.294 135.96C349.294 135 349.054 134.267 348.574 133.76C348.094 133.24 347.387 132.98 346.454 132.98C345.8 132.98 345.247 133.147 344.794 133.48C344.354 133.8 344.034 134.24 343.834 134.8H341.674V126.38H350.474V128.38ZM353.847 133.52C353.847 131.213 354.234 129.413 355.007 128.12C355.794 126.813 357.141 126.16 359.047 126.16C360.954 126.16 362.294 126.813 363.067 128.12C363.854 129.413 364.247 131.213 364.247 133.52C364.247 135.853 363.854 137.68 363.067 139C362.294 140.307 360.954 140.96 359.047 140.96C357.141 140.96 355.794 140.307 355.007 139C354.234 137.68 353.847 135.853 353.847 133.52ZM362.007 133.52C362.007 132.44 361.934 131.527 361.787 130.78C361.654 130.033 361.374 129.427 360.947 128.96C360.521 128.48 359.887 128.24 359.047 128.24C358.207 128.24 357.574 128.48 357.147 128.96C356.721 129.427 356.434 130.033 356.287 130.78C356.154 131.527 356.087 132.44 356.087 133.52C356.087 134.64 356.154 135.58 356.287 136.34C356.421 137.1 356.701 137.713 357.127 138.18C357.567 138.647 358.207 138.88 359.047 138.88C359.887 138.88 360.521 138.647 360.947 138.18C361.387 137.713 361.674 137.1 361.807 136.34C361.941 135.58 362.007 134.64 362.007 133.52ZM366.3 129.94C366.3 128.967 366.58 128.207 367.14 127.66C367.713 127.1 368.446 126.82 369.34 126.82C370.233 126.82 370.96 127.1 371.52 127.66C372.093 128.207 372.38 128.967 372.38 129.94C372.38 130.913 372.093 131.68 371.52 132.24C370.96 132.8 370.233 133.08 369.34 133.08C368.446 133.08 367.713 132.8 367.14 132.24C366.58 131.68 366.3 130.913 366.3 129.94ZM378.5 127.08L370.52 141H368.28L376.26 127.08H378.5ZM369.34 128.2C368.5 128.2 368.08 128.78 368.08 129.94C368.08 131.113 368.5 131.7 369.34 131.7C369.74 131.7 370.046 131.56 370.26 131.28C370.486 130.987 370.6 130.54 370.6 129.94C370.6 128.78 370.18 128.2 369.34 128.2ZM374.44 138.12C374.44 137.147 374.72 136.387 375.28 135.84C375.853 135.28 376.586 135 377.48 135C378.36 135 379.08 135.28 379.64 135.84C380.213 136.387 380.5 137.147 380.5 138.12C380.5 139.093 380.213 139.86 379.64 140.42C379.08 140.98 378.36 141.26 377.48 141.26C376.586 141.26 375.853 140.98 375.28 140.42C374.72 139.86 374.44 139.093 374.44 138.12ZM377.46 136.38C376.62 136.38 376.2 136.96 376.2 138.12C376.2 139.28 376.62 139.86 377.46 139.86C378.3 139.86 378.72 139.28 378.72 138.12C378.72 136.96 378.3 136.38 377.46 136.38Z" fill="#171717"/>
<path d="M399.931 115.5V148.5" stroke="#E2B950" stroke-width="4" stroke-linecap="round"/>
<path d="M433.8 127.1L429.2 135.96V141H426.92V135.96L422.3 127.1H424.84L428.06 133.92L431.28 127.1H433.8ZM440.389 141.18C439.349 141.18 438.409 140.947 437.569 140.48C436.729 140 436.069 139.333 435.589 138.48C435.109 137.613 434.869 136.613 434.869 135.48C434.869 134.36 435.116 133.367 435.609 132.5C436.103 131.633 436.776 130.967 437.629 130.5C438.483 130.033 439.436 129.8 440.489 129.8C441.543 129.8 442.496 130.033 443.349 130.5C444.203 130.967 444.876 131.633 445.369 132.5C445.863 133.367 446.109 134.36 446.109 135.48C446.109 136.6 445.856 137.593 445.349 138.46C444.843 139.327 444.149 140 443.269 140.48C442.403 140.947 441.443 141.18 440.389 141.18ZM440.389 139.2C440.976 139.2 441.523 139.06 442.029 138.78C442.549 138.5 442.969 138.08 443.289 137.52C443.609 136.96 443.769 136.28 443.769 135.48C443.769 134.68 443.616 134.007 443.309 133.46C443.003 132.9 442.596 132.48 442.089 132.2C441.583 131.92 441.036 131.78 440.449 131.78C439.863 131.78 439.316 131.92 438.809 132.2C438.316 132.48 437.923 132.9 437.629 133.46C437.336 134.007 437.189 134.68 437.189 135.48C437.189 136.667 437.489 137.587 438.089 138.24C438.703 138.88 439.469 139.2 440.389 139.2ZM458.343 129.98V141H456.063V139.7C455.703 140.153 455.23 140.513 454.643 140.78C454.07 141.033 453.457 141.16 452.803 141.16C451.937 141.16 451.157 140.98 450.463 140.62C449.783 140.26 449.243 139.727 448.843 139.02C448.457 138.313 448.263 137.46 448.263 136.46V129.98H450.523V136.12C450.523 137.107 450.77 137.867 451.263 138.4C451.757 138.92 452.43 139.18 453.283 139.18C454.137 139.18 454.81 138.92 455.303 138.4C455.81 137.867 456.063 137.107 456.063 136.12V129.98H458.343ZM464.012 131.84V137.94C464.012 138.353 464.105 138.653 464.292 138.84C464.492 139.013 464.825 139.1 465.292 139.1H466.692V141H464.892C463.865 141 463.078 140.76 462.532 140.28C461.985 139.8 461.712 139.02 461.712 137.94V131.84H460.412V129.98H461.712V127.24H464.012V129.98H466.692V131.84H464.012ZM478.773 129.98V141H476.493V139.7C476.133 140.153 475.66 140.513 475.073 140.78C474.5 141.033 473.886 141.16 473.233 141.16C472.366 141.16 471.586 140.98 470.893 140.62C470.213 140.26 469.673 139.727 469.273 139.02C468.886 138.313 468.693 137.46 468.693 136.46V129.98H470.953V136.12C470.953 137.107 471.2 137.867 471.693 138.4C472.186 138.92 472.86 139.18 473.713 139.18C474.566 139.18 475.24 138.92 475.733 138.4C476.24 137.867 476.493 137.107 476.493 136.12V129.98H478.773ZM484.061 131.62C484.448 131.087 484.975 130.653 485.641 130.32C486.321 129.973 487.075 129.8 487.901 129.8C488.875 129.8 489.755 130.033 490.541 130.5C491.328 130.967 491.948 131.633 492.401 132.5C492.855 133.353 493.081 134.333 493.081 135.44C493.081 136.547 492.855 137.54 492.401 138.42C491.948 139.287 491.321 139.967 490.521 140.46C489.735 140.94 488.861 141.18 487.901 141.18C487.048 141.18 486.288 141.013 485.621 140.68C484.968 140.347 484.448 139.92 484.061 139.4V141H481.781V126.2H484.061V131.62ZM490.761 135.44C490.761 134.68 490.601 134.027 490.281 133.48C489.975 132.92 489.561 132.5 489.041 132.22C488.535 131.927 487.988 131.78 487.401 131.78C486.828 131.78 486.281 131.927 485.761 132.22C485.255 132.513 484.841 132.94 484.521 133.5C484.215 134.06 484.061 134.72 484.061 135.48C484.061 136.24 484.215 136.907 484.521 137.48C484.841 138.04 485.255 138.467 485.761 138.76C486.281 139.053 486.828 139.2 487.401 139.2C487.988 139.2 488.535 139.053 489.041 138.76C489.561 138.453 489.975 138.013 490.281 137.44C490.601 136.867 490.761 136.2 490.761 135.44ZM505.436 135.22C505.436 135.633 505.409 136.007 505.356 136.34H496.936C497.003 137.22 497.329 137.927 497.916 138.46C498.503 138.993 499.223 139.26 500.076 139.26C501.303 139.26 502.169 138.747 502.676 137.72H505.136C504.803 138.733 504.196 139.567 503.316 140.22C502.449 140.86 501.369 141.18 500.076 141.18C499.023 141.18 498.076 140.947 497.236 140.48C496.409 140 495.756 139.333 495.276 138.48C494.809 137.613 494.576 136.613 494.576 135.48C494.576 134.347 494.803 133.353 495.256 132.5C495.723 131.633 496.369 130.967 497.196 130.5C498.036 130.033 498.996 129.8 500.076 129.8C501.116 129.8 502.043 130.027 502.856 130.48C503.669 130.933 504.303 131.573 504.756 132.4C505.209 133.213 505.436 134.153 505.436 135.22ZM503.056 134.5C503.043 133.66 502.743 132.987 502.156 132.48C501.569 131.973 500.843 131.72 499.976 131.72C499.189 131.72 498.516 131.973 497.956 132.48C497.396 132.973 497.063 133.647 496.956 134.5H503.056Z" fill="#171717"/>
<path d="M432.48 204.1V205.96H428.78V218H426.5V205.96H422.78V204.1H432.48ZM449.589 206.98L446.169 218H443.769L441.549 209.86L439.329 218H436.929L433.489 206.98H435.809L438.109 215.84L440.449 206.98H442.829L445.069 215.8L447.349 206.98H449.589ZM452.453 205.52C452.04 205.52 451.693 205.38 451.413 205.1C451.133 204.82 450.993 204.473 450.993 204.06C450.993 203.647 451.133 203.3 451.413 203.02C451.693 202.74 452.04 202.6 452.453 202.6C452.853 202.6 453.193 202.74 453.473 203.02C453.753 203.3 453.893 203.647 453.893 204.06C453.893 204.473 453.753 204.82 453.473 205.1C453.193 205.38 452.853 205.52 452.453 205.52ZM453.573 206.98V218H451.293V206.98H453.573ZM459.226 208.84V214.94C459.226 215.353 459.32 215.653 459.506 215.84C459.706 216.013 460.04 216.1 460.506 216.1H461.906V218H460.106C459.08 218 458.293 217.76 457.746 217.28C457.2 216.8 456.926 216.02 456.926 214.94V208.84H455.626V206.98H456.926V204.24H459.226V206.98H461.906V208.84H459.226ZM463.248 212.48C463.248 211.347 463.474 210.353 463.928 209.5C464.394 208.633 465.034 207.967 465.848 207.5C466.661 207.033 467.594 206.8 468.648 206.8C469.981 206.8 471.081 207.12 471.948 207.76C472.828 208.387 473.421 209.287 473.728 210.46H471.268C471.068 209.913 470.748 209.487 470.308 209.18C469.868 208.873 469.314 208.72 468.648 208.72C467.714 208.72 466.968 209.053 466.408 209.72C465.861 210.373 465.588 211.293 465.588 212.48C465.588 213.667 465.861 214.593 466.408 215.26C466.968 215.927 467.714 216.26 468.648 216.26C469.968 216.26 470.841 215.68 471.268 214.52H473.728C473.408 215.64 472.808 216.533 471.928 217.2C471.048 217.853 469.954 218.18 468.648 218.18C467.594 218.18 466.661 217.947 465.848 217.48C465.034 217 464.394 216.333 463.928 215.48C463.474 214.613 463.248 213.613 463.248 212.48ZM481.7 206.8C482.54 206.8 483.287 206.98 483.94 207.34C484.607 207.7 485.127 208.233 485.5 208.94C485.887 209.647 486.08 210.5 486.08 211.5V218H483.82V211.84C483.82 210.853 483.573 210.1 483.08 209.58C482.587 209.047 481.913 208.78 481.06 208.78C480.207 208.78 479.527 209.047 479.02 209.58C478.527 210.1 478.28 210.853 478.28 211.84V218H476V203.2H478.28V208.26C478.667 207.793 479.153 207.433 479.74 207.18C480.34 206.927 480.993 206.8 481.7 206.8Z" fill="#171717"/>
<path d="M425.78 281.1V295H423.5V281.1H425.78ZM434.333 283.8C435.2 283.8 435.973 283.98 436.653 284.34C437.347 284.7 437.887 285.233 438.273 285.94C438.66 286.647 438.853 287.5 438.853 288.5V295H436.593V288.84C436.593 287.853 436.347 287.1 435.853 286.58C435.36 286.047 434.687 285.78 433.833 285.78C432.98 285.78 432.3 286.047 431.793 286.58C431.3 287.1 431.053 287.853 431.053 288.84V295H428.773V283.98H431.053V285.24C431.427 284.787 431.9 284.433 432.473 284.18C433.06 283.927 433.68 283.8 434.333 283.8ZM445.762 295.18C444.895 295.18 444.115 295.027 443.422 294.72C442.742 294.4 442.202 293.973 441.802 293.44C441.402 292.893 441.188 292.287 441.162 291.62H443.522C443.562 292.087 443.782 292.48 444.182 292.8C444.595 293.107 445.108 293.26 445.722 293.26C446.362 293.26 446.855 293.14 447.202 292.9C447.562 292.647 447.742 292.327 447.742 291.94C447.742 291.527 447.542 291.22 447.142 291.02C446.755 290.82 446.135 290.6 445.282 290.36C444.455 290.133 443.782 289.913 443.262 289.7C442.742 289.487 442.288 289.16 441.902 288.72C441.528 288.28 441.342 287.7 441.342 286.98C441.342 286.393 441.515 285.86 441.862 285.38C442.208 284.887 442.702 284.5 443.342 284.22C443.995 283.94 444.742 283.8 445.582 283.8C446.835 283.8 447.842 284.12 448.602 284.76C449.375 285.387 449.788 286.247 449.842 287.34H447.562C447.522 286.847 447.322 286.453 446.962 286.16C446.602 285.867 446.115 285.72 445.502 285.72C444.902 285.72 444.442 285.833 444.122 286.06C443.802 286.287 443.642 286.587 443.642 286.96C443.642 287.253 443.748 287.5 443.962 287.7C444.175 287.9 444.435 288.06 444.742 288.18C445.048 288.287 445.502 288.427 446.102 288.6C446.902 288.813 447.555 289.033 448.062 289.26C448.582 289.473 449.028 289.793 449.402 290.22C449.775 290.647 449.968 291.213 449.982 291.92C449.982 292.547 449.808 293.107 449.462 293.6C449.115 294.093 448.622 294.48 447.982 294.76C447.355 295.04 446.615 295.18 445.762 295.18ZM455.105 285.84V291.94C455.105 292.353 455.199 292.653 455.385 292.84C455.585 293.013 455.919 293.1 456.385 293.1H457.785V295H455.985C454.959 295 454.172 294.76 453.625 294.28C453.079 293.8 452.805 293.02 452.805 291.94V285.84H451.505V283.98H452.805V281.24H455.105V283.98H457.785V285.84H455.105ZM459.127 289.44C459.127 288.333 459.353 287.353 459.807 286.5C460.273 285.647 460.9 284.987 461.687 284.52C462.487 284.04 463.367 283.8 464.327 283.8C465.193 283.8 465.947 283.973 466.587 284.32C467.24 284.653 467.76 285.073 468.147 285.58V283.98H470.447V295H468.147V293.36C467.76 293.88 467.233 294.313 466.567 294.66C465.9 295.007 465.14 295.18 464.287 295.18C463.34 295.18 462.473 294.94 461.687 294.46C460.9 293.967 460.273 293.287 459.807 292.42C459.353 291.54 459.127 290.547 459.127 289.44ZM468.147 289.48C468.147 288.72 467.987 288.06 467.667 287.5C467.36 286.94 466.953 286.513 466.447 286.22C465.94 285.927 465.393 285.78 464.807 285.78C464.22 285.78 463.673 285.927 463.167 286.22C462.66 286.5 462.247 286.92 461.927 287.48C461.62 288.027 461.467 288.68 461.467 289.44C461.467 290.2 461.62 290.867 461.927 291.44C462.247 292.013 462.66 292.453 463.167 292.76C463.687 293.053 464.233 293.2 464.807 293.2C465.393 293.2 465.94 293.053 466.447 292.76C466.953 292.467 467.36 292.04 467.667 291.48C467.987 290.907 468.147 290.24 468.147 289.48ZM477.881 283.8C478.735 283.8 479.488 283.973 480.141 284.32C480.808 284.653 481.328 285.073 481.701 285.58V283.98H484.001V295.18C484.001 296.193 483.788 297.093 483.361 297.88C482.935 298.68 482.315 299.307 481.501 299.76C480.701 300.213 479.741 300.44 478.621 300.44C477.128 300.44 475.888 300.087 474.901 299.38C473.915 298.687 473.355 297.74 473.221 296.54H475.481C475.655 297.113 476.021 297.573 476.581 297.92C477.155 298.28 477.835 298.46 478.621 298.46C479.541 298.46 480.281 298.18 480.841 297.62C481.415 297.06 481.701 296.247 481.701 295.18V293.34C481.315 293.86 480.788 294.3 480.121 294.66C479.468 295.007 478.721 295.18 477.881 295.18C476.921 295.18 476.041 294.94 475.241 294.46C474.455 293.967 473.828 293.287 473.361 292.42C472.908 291.54 472.681 290.547 472.681 289.44C472.681 288.333 472.908 287.353 473.361 286.5C473.828 285.647 474.455 284.987 475.241 284.52C476.041 284.04 476.921 283.8 477.881 283.8ZM481.701 289.48C481.701 288.72 481.541 288.06 481.221 287.5C480.915 286.94 480.508 286.513 480.001 286.22C479.495 285.927 478.948 285.78 478.361 285.78C477.775 285.78 477.228 285.927 476.721 286.22C476.215 286.5 475.801 286.92 475.481 287.48C475.175 288.027 475.021 288.68 475.021 289.44C475.021 290.2 475.175 290.867 475.481 291.44C475.801 292.013 476.215 292.453 476.721 292.76C477.241 293.053 477.788 293.2 478.361 293.2C478.948 293.2 479.495 293.053 480.001 292.76C480.508 292.467 480.915 292.04 481.221 291.48C481.541 290.907 481.701 290.24 481.701 289.48ZM489.276 285.58C489.609 285.02 490.049 284.587 490.596 284.28C491.156 283.96 491.816 283.8 492.576 283.8V286.16H491.996C491.103 286.16 490.423 286.387 489.956 286.84C489.503 287.293 489.276 288.08 489.276 289.2V295H486.996V283.98H489.276V285.58ZM493.912 289.44C493.912 288.333 494.139 287.353 494.592 286.5C495.059 285.647 495.685 284.987 496.472 284.52C497.272 284.04 498.152 283.8 499.112 283.8C499.979 283.8 500.732 283.973 501.372 284.32C502.025 284.653 502.545 285.073 502.932 285.58V283.98H505.232V295H502.932V293.36C502.545 293.88 502.019 294.313 501.352 294.66C500.685 295.007 499.925 295.18 499.072 295.18C498.125 295.18 497.259 294.94 496.472 294.46C495.685 293.967 495.059 293.287 494.592 292.42C494.139 291.54 493.912 290.547 493.912 289.44ZM502.932 289.48C502.932 288.72 502.772 288.06 502.452 287.5C502.145 286.94 501.739 286.513 501.232 286.22C500.725 285.927 500.179 285.78 499.592 285.78C499.005 285.78 498.459 285.927 497.952 286.22C497.445 286.5 497.032 286.92 496.712 287.48C496.405 288.027 496.252 288.68 496.252 289.44C496.252 290.2 496.405 290.867 496.712 291.44C497.032 292.013 497.445 292.453 497.952 292.76C498.472 293.053 499.019 293.2 499.592 293.2C500.179 293.2 500.725 293.053 501.232 292.76C501.739 292.467 502.145 292.04 502.452 291.48C502.772 290.907 502.932 290.24 502.932 289.48ZM521.567 283.8C522.433 283.8 523.207 283.98 523.887 284.34C524.58 284.7 525.12 285.233 525.507 285.94C525.907 286.647 526.107 287.5 526.107 288.5V295H523.847V288.84C523.847 287.853 523.6 287.1 523.107 286.58C522.613 286.047 521.94 285.78 521.087 285.78C520.233 285.78 519.553 286.047 519.047 286.58C518.553 287.1 518.307 287.853 518.307 288.84V295H516.047V288.84C516.047 287.853 515.8 287.1 515.307 286.58C514.813 286.047 514.14 285.78 513.287 285.78C512.433 285.78 511.753 286.047 511.247 286.58C510.753 287.1 510.507 287.853 510.507 288.84V295H508.227V283.98H510.507V285.24C510.88 284.787 511.353 284.433 511.927 284.18C512.5 283.927 513.113 283.8 513.767 283.8C514.647 283.8 515.433 283.987 516.127 284.36C516.82 284.733 517.353 285.273 517.727 285.98C518.06 285.313 518.58 284.787 519.287 284.4C519.993 284 520.753 283.8 521.567 283.8Z" fill="#171717"/>
<path d="M340.618 214.96V213.24L347.338 203.6H350.098V212.98H351.958V214.96H350.098V218H347.858V214.96H340.618ZM347.958 205.92L343.238 212.98H347.958V205.92ZM353.847 210.52C353.847 208.213 354.234 206.413 355.007 205.12C355.794 203.813 357.141 203.16 359.047 203.16C360.954 203.16 362.294 203.813 363.067 205.12C363.854 206.413 364.247 208.213 364.247 210.52C364.247 212.853 363.854 214.68 363.067 216C362.294 217.307 360.954 217.96 359.047 217.96C357.141 217.96 355.794 217.307 355.007 216C354.234 214.68 353.847 212.853 353.847 210.52ZM362.007 210.52C362.007 209.44 361.934 208.527 361.787 207.78C361.654 207.033 361.374 206.427 360.947 205.96C360.521 205.48 359.887 205.24 359.047 205.24C358.207 205.24 357.574 205.48 357.147 205.96C356.721 206.427 356.434 207.033 356.287 207.78C356.154 208.527 356.087 209.44 356.087 210.52C356.087 211.64 356.154 212.58 356.287 213.34C356.421 214.1 356.701 214.713 357.127 215.18C357.567 215.647 358.207 215.88 359.047 215.88C359.887 215.88 360.521 215.647 360.947 215.18C361.387 214.713 361.674 214.1 361.807 213.34C361.941 212.58 362.007 211.64 362.007 210.52ZM366.3 206.94C366.3 205.967 366.58 205.207 367.14 204.66C367.713 204.1 368.446 203.82 369.34 203.82C370.233 203.82 370.96 204.1 371.52 204.66C372.093 205.207 372.38 205.967 372.38 206.94C372.38 207.913 372.093 208.68 371.52 209.24C370.96 209.8 370.233 210.08 369.34 210.08C368.446 210.08 367.713 209.8 367.14 209.24C366.58 208.68 366.3 207.913 366.3 206.94ZM378.5 204.08L370.52 218H368.28L376.26 204.08H378.5ZM369.34 205.2C368.5 205.2 368.08 205.78 368.08 206.94C368.08 208.113 368.5 208.7 369.34 208.7C369.74 208.7 370.046 208.56 370.26 208.28C370.486 207.987 370.6 207.54 370.6 206.94C370.6 205.78 370.18 205.2 369.34 205.2ZM374.44 215.12C374.44 214.147 374.72 213.387 375.28 212.84C375.853 212.28 376.586 212 377.48 212C378.36 212 379.08 212.28 379.64 212.84C380.213 213.387 380.5 214.147 380.5 215.12C380.5 216.093 380.213 216.86 379.64 217.42C379.08 217.98 378.36 218.26 377.48 218.26C376.586 218.26 375.853 217.98 375.28 217.42C374.72 216.86 374.44 216.093 374.44 215.12ZM377.46 213.38C376.62 213.38 376.2 213.96 376.2 215.12C376.2 216.28 376.62 216.86 377.46 216.86C378.3 216.86 378.72 216.28 378.72 215.12C378.72 213.96 378.3 213.38 377.46 213.38Z" fill="#171717"/>
<path d="M399.931 192.5V225.5" stroke="#707070" stroke-width="4" stroke-linecap="round"/>
<path d="M346.555 282.5V280.42H350.715V295H348.415V282.5H346.555ZM353.847 287.52C353.847 285.213 354.234 283.413 355.007 282.12C355.794 280.813 357.141 280.16 359.047 280.16C360.954 280.16 362.294 280.813 363.067 282.12C363.854 283.413 364.247 285.213 364.247 287.52C364.247 289.853 363.854 291.68 363.067 293C362.294 294.307 360.954 294.96 359.047 294.96C357.141 294.96 355.794 294.307 355.007 293C354.234 291.68 353.847 289.853 353.847 287.52ZM362.007 287.52C362.007 286.44 361.934 285.527 361.787 284.78C361.654 284.033 361.374 283.427 360.947 282.96C360.521 282.48 359.887 282.24 359.047 282.24C358.207 282.24 357.574 282.48 357.147 282.96C356.721 283.427 356.434 284.033 356.287 284.78C356.154 285.527 356.087 286.44 356.087 287.52C356.087 288.64 356.154 289.58 356.287 290.34C356.421 291.1 356.701 291.713 357.127 292.18C357.567 292.647 358.207 292.88 359.047 292.88C359.887 292.88 360.521 292.647 360.947 292.18C361.387 291.713 361.674 291.1 361.807 290.34C361.941 289.58 362.007 288.64 362.007 287.52ZM366.3 283.94C366.3 282.967 366.58 282.207 367.14 281.66C367.713 281.1 368.446 280.82 369.34 280.82C370.233 280.82 370.96 281.1 371.52 281.66C372.093 282.207 372.38 282.967 372.38 283.94C372.38 284.913 372.093 285.68 371.52 286.24C370.96 286.8 370.233 287.08 369.34 287.08C368.446 287.08 367.713 286.8 367.14 286.24C366.58 285.68 366.3 284.913 366.3 283.94ZM378.5 281.08L370.52 295H368.28L376.26 281.08H378.5ZM369.34 282.2C368.5 282.2 368.08 282.78 368.08 283.94C368.08 285.113 368.5 285.7 369.34 285.7C369.74 285.7 370.046 285.56 370.26 285.28C370.486 284.987 370.6 284.54 370.6 283.94C370.6 282.78 370.18 282.2 369.34 282.2ZM374.44 292.12C374.44 291.147 374.72 290.387 375.28 289.84C375.853 289.28 376.586 289 377.48 289C378.36 289 379.08 289.28 379.64 289.84C380.213 290.387 380.5 291.147 380.5 292.12C380.5 293.093 380.213 293.86 379.64 294.42C379.08 294.98 378.36 295.26 377.48 295.26C376.586 295.26 375.853 294.98 375.28 294.42C374.72 293.86 374.44 293.093 374.44 292.12ZM377.46 290.38C376.62 290.38 376.2 290.96 376.2 292.12C376.2 293.28 376.62 293.86 377.46 293.86C378.3 293.86 378.72 293.28 378.72 292.12C378.72 290.96 378.3 290.38 377.46 290.38Z" fill="#171717"/>
<path d="M399.931 269.5V302.5" stroke="#C4C4C4" stroke-width="4" stroke-linecap="round"/>
</svg>
