<svg viewBox="0 0 622 352" fill="none" xmlns="http://www.w3.org/2000/svg">
<rect width="622" height="352" rx="10" fill="#fafafa" fill-opacity="0.02"/>
<path d="M41.304 31.152L35.328 48H30.192L24.216 31.152H28.584L32.76 43.872L36.96 31.152H41.304ZM45.0833 33.216C44.3633 33.216 43.7713 33.008 43.3073 32.592C42.8593 32.16 42.6353 31.632 42.6353 31.008C42.6353 30.368 42.8593 29.84 43.3073 29.424C43.7713 28.992 44.3633 28.776 45.0833 28.776C45.7873 28.776 46.3633 28.992 46.8113 29.424C47.2753 29.84 47.5073 30.368 47.5073 31.008C47.5073 31.632 47.2753 32.16 46.8113 32.592C46.3633 33.008 45.7873 33.216 45.0833 33.216ZM47.1233 34.608V48H43.0193V34.608H47.1233ZM55.5454 48.192C54.3774 48.192 53.3374 47.992 52.4254 47.592C51.5134 47.192 50.7934 46.648 50.2654 45.96C49.7374 45.256 49.4414 44.472 49.3774 43.608H53.4334C53.4814 44.072 53.6974 44.448 54.0814 44.736C54.4654 45.024 54.9374 45.168 55.4974 45.168C56.0094 45.168 56.4014 45.072 56.6734 44.88C56.9614 44.672 57.1054 44.408 57.1054 44.088C57.1054 43.704 56.9054 43.424 56.5054 43.248C56.1054 43.056 55.4574 42.848 54.5614 42.624C53.6014 42.4 52.8014 42.168 52.1614 41.928C51.5214 41.672 50.9694 41.28 50.5054 40.752C50.0414 40.208 49.8094 39.48 49.8094 38.568C49.8094 37.8 50.0174 37.104 50.4334 36.48C50.8654 35.84 51.4894 35.336 52.3054 34.968C53.1374 34.6 54.1214 34.416 55.2574 34.416C56.9374 34.416 58.2574 34.832 59.2174 35.664C60.1934 36.496 60.7534 37.6 60.8974 38.976H57.1054C57.0414 38.512 56.8334 38.144 56.4814 37.872C56.1454 37.6 55.6974 37.464 55.1374 37.464C54.6574 37.464 54.2894 37.56 54.0334 37.752C53.7774 37.928 53.6494 38.176 53.6494 38.496C53.6494 38.88 53.8494 39.168 54.2494 39.36C54.6654 39.552 55.3054 39.744 56.1694 39.936C57.1614 40.192 57.9694 40.448 58.5934 40.704C59.2174 40.944 59.7614 41.344 60.2254 41.904C60.7054 42.448 60.9534 43.184 60.9694 44.112C60.9694 44.896 60.7454 45.6 60.2974 46.224C59.8654 46.832 59.2334 47.312 58.4014 47.664C57.5854 48.016 56.6334 48.192 55.5454 48.192ZM65.5442 33.216C64.8242 33.216 64.2322 33.008 63.7682 32.592C63.3202 32.16 63.0962 31.632 63.0962 31.008C63.0962 30.368 63.3202 29.84 63.7682 29.424C64.2322 28.992 64.8242 28.776 65.5442 28.776C66.2482 28.776 66.8242 28.992 67.2722 29.424C67.7362 29.84 67.9682 30.368 67.9682 31.008C67.9682 31.632 67.7362 32.16 67.2722 32.592C66.8242 33.008 66.2482 33.216 65.5442 33.216ZM67.5842 34.608V48H63.4802V34.608H67.5842ZM78.0223 44.52V48H75.9343C74.4463 48 73.2863 47.64 72.4543 46.92C71.6223 46.184 71.2063 44.992 71.2063 43.344V38.016H69.5743V34.608H71.2063V31.344H75.3103V34.608H77.9983V38.016H75.3103V43.392C75.3103 43.792 75.4063 44.08 75.5983 44.256C75.7903 44.432 76.1103 44.52 76.5583 44.52H78.0223ZM79.4923 41.28C79.4923 39.904 79.7483 38.696 80.2603 37.656C80.7883 36.616 81.5003 35.816 82.3963 35.256C83.2923 34.696 84.2923 34.416 85.3963 34.416C86.3403 34.416 87.1643 34.608 87.8683 34.992C88.5883 35.376 89.1403 35.88 89.5243 36.504V34.608H93.6283V48H89.5243V46.104C89.1243 46.728 88.5643 47.232 87.8443 47.616C87.1403 48 86.3163 48.192 85.3723 48.192C84.2843 48.192 83.2923 47.912 82.3963 47.352C81.5003 46.776 80.7883 45.968 80.2603 44.928C79.7483 43.872 79.4923 42.656 79.4923 41.28ZM89.5243 41.304C89.5243 40.28 89.2363 39.472 88.6603 38.88C88.1003 38.288 87.4123 37.992 86.5963 37.992C85.7803 37.992 85.0843 38.288 84.5083 38.88C83.9483 39.456 83.6683 40.256 83.6683 41.28C83.6683 42.304 83.9483 43.12 84.5083 43.728C85.0843 44.32 85.7803 44.616 86.5963 44.616C87.4123 44.616 88.1003 44.32 88.6603 43.728C89.2363 43.136 89.5243 42.328 89.5243 41.304ZM102.045 48.192C100.877 48.192 99.8374 47.992 98.9254 47.592C98.0134 47.192 97.2934 46.648 96.7654 45.96C96.2374 45.256 95.9414 44.472 95.8774 43.608H99.9334C99.9814 44.072 100.197 44.448 100.581 44.736C100.965 45.024 101.437 45.168 101.997 45.168C102.509 45.168 102.901 45.072 103.173 44.88C103.461 44.672 103.605 44.408 103.605 44.088C103.605 43.704 103.405 43.424 103.005 43.248C102.605 43.056 101.957 42.848 101.061 42.624C100.101 42.4 99.3014 42.168 98.6614 41.928C98.0214 41.672 97.4694 41.28 97.0054 40.752C96.5414 40.208 96.3094 39.48 96.3094 38.568C96.3094 37.8 96.5174 37.104 96.9334 36.48C97.3654 35.84 97.9894 35.336 98.8054 34.968C99.6374 34.6 100.621 34.416 101.757 34.416C103.437 34.416 104.757 34.832 105.717 35.664C106.693 36.496 107.253 37.6 107.397 38.976H103.605C103.541 38.512 103.333 38.144 102.981 37.872C102.645 37.6 102.197 37.464 101.637 37.464C101.157 37.464 100.789 37.56 100.533 37.752C100.277 37.928 100.149 38.176 100.149 38.496C100.149 38.88 100.349 39.168 100.749 39.36C101.165 39.552 101.805 39.744 102.669 39.936C103.661 40.192 104.469 40.448 105.093 40.704C105.717 40.944 106.261 41.344 106.725 41.904C107.205 42.448 107.453 43.184 107.469 44.112C107.469 44.896 107.245 45.6 106.797 46.224C106.365 46.832 105.733 47.312 104.901 47.664C104.085 48.016 103.133 48.192 102.045 48.192ZM127.69 41.088C127.69 41.472 127.666 41.872 127.618 42.288H118.33C118.394 43.12 118.658 43.76 119.122 44.208C119.602 44.64 120.186 44.856 120.874 44.856C121.898 44.856 122.61 44.424 123.01 43.56H127.378C127.154 44.44 126.746 45.232 126.154 45.936C125.578 46.64 124.85 47.192 123.97 47.592C123.09 47.992 122.106 48.192 121.018 48.192C119.706 48.192 118.538 47.912 117.514 47.352C116.49 46.792 115.69 45.992 115.114 44.952C114.538 43.912 114.25 42.696 114.25 41.304C114.25 39.912 114.53 38.696 115.09 37.656C115.666 36.616 116.466 35.816 117.49 35.256C118.514 34.696 119.69 34.416 121.018 34.416C122.314 34.416 123.466 34.688 124.474 35.232C125.482 35.776 126.266 36.552 126.826 37.56C127.402 38.568 127.69 39.744 127.69 41.088ZM123.49 40.008C123.49 39.304 123.25 38.744 122.77 38.328C122.29 37.912 121.69 37.704 120.97 37.704C120.282 37.704 119.698 37.904 119.218 38.304C118.754 38.704 118.466 39.272 118.354 40.008H123.49ZM138.015 34.464C139.583 34.464 140.831 34.976 141.759 36C142.703 37.008 143.175 38.4 143.175 40.176V48H139.095V40.728C139.095 39.832 138.863 39.136 138.399 38.64C137.935 38.144 137.311 37.896 136.527 37.896C135.743 37.896 135.119 38.144 134.655 38.64C134.191 39.136 133.959 39.832 133.959 40.728V48H129.855V34.608H133.959V36.384C134.375 35.792 134.935 35.328 135.639 34.992C136.343 34.64 137.135 34.464 138.015 34.464ZM165.561 31.152L159.729 42.432V48H155.625V42.432L149.793 31.152H154.449L157.713 38.208L160.953 31.152H165.561ZM173.311 48.192C171.999 48.192 170.815 47.912 169.759 47.352C168.719 46.792 167.895 45.992 167.287 44.952C166.695 43.912 166.399 42.696 166.399 41.304C166.399 39.928 166.703 38.72 167.311 37.68C167.919 36.624 168.751 35.816 169.807 35.256C170.863 34.696 172.047 34.416 173.359 34.416C174.671 34.416 175.855 34.696 176.911 35.256C177.967 35.816 178.799 36.624 179.407 37.68C180.015 38.72 180.319 39.928 180.319 41.304C180.319 42.68 180.007 43.896 179.383 44.952C178.775 45.992 177.935 46.792 176.863 47.352C175.807 47.912 174.623 48.192 173.311 48.192ZM173.311 44.64C174.095 44.64 174.759 44.352 175.303 43.776C175.863 43.2 176.143 42.376 176.143 41.304C176.143 40.232 175.871 39.408 175.327 38.832C174.799 38.256 174.143 37.968 173.359 37.968C172.559 37.968 171.895 38.256 171.367 38.832C170.839 39.392 170.575 40.216 170.575 41.304C170.575 42.376 170.831 43.2 171.343 43.776C171.871 44.352 172.527 44.64 173.311 44.64ZM195.72 34.608V48H191.616V46.176C191.2 46.768 190.632 47.248 189.912 47.616C189.208 47.968 188.424 48.144 187.56 48.144C186.536 48.144 185.632 47.92 184.848 47.472C184.064 47.008 183.456 46.344 183.024 45.48C182.592 44.616 182.376 43.6 182.376 42.432V34.608H186.456V41.88C186.456 42.776 186.688 43.472 187.152 43.968C187.616 44.464 188.24 44.712 189.024 44.712C189.824 44.712 190.456 44.464 190.92 43.968C191.384 43.472 191.616 42.776 191.616 41.88V34.608H195.72ZM206.132 44.52V48H204.044C202.556 48 201.396 47.64 200.564 46.92C199.732 46.184 199.316 44.992 199.316 43.344V38.016H197.684V34.608H199.316V31.344H203.42V34.608H206.108V38.016H203.42V43.392C203.42 43.792 203.516 44.08 203.708 44.256C203.9 44.432 204.22 44.52 204.668 44.52H206.132ZM221.642 34.608V48H217.538V46.176C217.122 46.768 216.554 47.248 215.834 47.616C215.13 47.968 214.346 48.144 213.482 48.144C212.458 48.144 211.554 47.92 210.77 47.472C209.986 47.008 209.378 46.344 208.946 45.48C208.514 44.616 208.298 43.6 208.298 42.432V34.608H212.378V41.88C212.378 42.776 212.61 43.472 213.074 43.968C213.538 44.464 214.162 44.712 214.946 44.712C215.746 44.712 216.378 44.464 216.842 43.968C217.306 43.472 217.538 42.776 217.538 41.88V34.608H221.642ZM228.694 36.504C229.078 35.88 229.63 35.376 230.35 34.992C231.07 34.608 231.894 34.416 232.822 34.416C233.926 34.416 234.926 34.696 235.822 35.256C236.718 35.816 237.422 36.616 237.934 37.656C238.462 38.696 238.726 39.904 238.726 41.28C238.726 42.656 238.462 43.872 237.934 44.928C237.422 45.968 236.718 46.776 235.822 47.352C234.926 47.912 233.926 48.192 232.822 48.192C231.878 48.192 231.054 48.008 230.35 47.64C229.646 47.256 229.094 46.752 228.694 46.128V48H224.59V30.24H228.694V36.504ZM234.55 41.28C234.55 40.256 234.262 39.456 233.686 38.88C233.126 38.288 232.43 37.992 231.598 37.992C230.782 37.992 230.086 38.288 229.51 38.88C228.95 39.472 228.67 40.28 228.67 41.304C228.67 42.328 228.95 43.136 229.51 43.728C230.086 44.32 230.782 44.616 231.598 44.616C232.414 44.616 233.11 44.32 233.686 43.728C234.262 43.12 234.55 42.304 234.55 41.28ZM253.503 41.088C253.503 41.472 253.479 41.872 253.431 42.288H244.143C244.207 43.12 244.471 43.76 244.935 44.208C245.415 44.64 245.999 44.856 246.687 44.856C247.711 44.856 248.423 44.424 248.823 43.56H253.191C252.967 44.44 252.559 45.232 251.967 45.936C251.391 46.64 250.663 47.192 249.783 47.592C248.903 47.992 247.919 48.192 246.831 48.192C245.519 48.192 244.351 47.912 243.327 47.352C242.303 46.792 241.503 45.992 240.927 44.952C240.351 43.912 240.063 42.696 240.063 41.304C240.063 39.912 240.343 38.696 240.903 37.656C241.479 36.616 242.279 35.816 243.303 35.256C244.327 34.696 245.503 34.416 246.831 34.416C248.127 34.416 249.279 34.688 250.287 35.232C251.295 35.776 252.079 36.552 252.639 37.56C253.215 38.568 253.503 39.744 253.503 41.088ZM249.303 40.008C249.303 39.304 249.063 38.744 248.583 38.328C248.103 37.912 247.503 37.704 246.783 37.704C246.095 37.704 245.511 37.904 245.031 38.304C244.567 38.704 244.279 39.272 244.167 40.008H249.303Z" fill="black"/>
<rect x="396" y="24" width="210" height="32" rx="8" fill="white" fill-opacity="0.1"/>
<rect x="459.914" y="32" width="0.362071" height="16" rx="0.181035" fill="#A4A4A5"/>
<path d="M422.175 35.27C423.211 35.27 424.117 35.4707 424.891 35.872C425.675 36.264 426.277 36.8333 426.697 37.58C427.127 38.3173 427.341 39.1807 427.341 40.17C427.341 41.1593 427.127 42.018 426.697 42.746C426.277 43.474 425.675 44.034 424.891 44.426C424.117 44.8087 423.211 45 422.175 45H418.997V35.27H422.175ZM422.175 43.698C423.314 43.698 424.187 43.39 424.793 42.774C425.4 42.158 425.703 41.29 425.703 40.17C425.703 39.0407 425.4 38.1587 424.793 37.524C424.187 36.8893 423.314 36.572 422.175 36.572H420.593V43.698H422.175ZM430.519 37.286V45H428.923V37.286H430.519ZM431.163 35.214L428.069 36.74V35.564L431.163 33.856V35.214ZM432.082 41.108C432.082 40.3333 432.241 39.6473 432.558 39.05C432.885 38.4527 433.324 37.9907 433.874 37.664C434.434 37.328 435.05 37.16 435.722 37.16C436.329 37.16 436.856 37.2813 437.304 37.524C437.762 37.7573 438.126 38.0513 438.396 38.406V37.286H440.006V45H438.396V43.852C438.126 44.216 437.757 44.5193 437.29 44.762C436.824 45.0047 436.292 45.126 435.694 45.126C435.032 45.126 434.425 44.958 433.874 44.622C433.324 44.2767 432.885 43.8007 432.558 43.194C432.241 42.578 432.082 41.8827 432.082 41.108ZM438.396 41.136C438.396 40.604 438.284 40.142 438.06 39.75C437.846 39.358 437.561 39.0593 437.206 38.854C436.852 38.6487 436.469 38.546 436.058 38.546C435.648 38.546 435.265 38.6487 434.91 38.854C434.556 39.05 434.266 39.344 434.042 39.736C433.828 40.1187 433.72 40.576 433.72 41.108C433.72 41.64 433.828 42.1067 434.042 42.508C434.266 42.9093 434.556 43.2173 434.91 43.432C435.274 43.6373 435.657 43.74 436.058 43.74C436.469 43.74 436.852 43.6373 437.206 43.432C437.561 43.2267 437.846 42.928 438.06 42.536C438.284 42.1347 438.396 41.668 438.396 41.136Z" fill="black"/>
<path d="M475.403 45.098C474.75 45.098 474.162 44.986 473.639 44.762C473.117 44.5287 472.706 44.202 472.407 43.782C472.109 43.362 471.959 42.872 471.959 42.312H473.667C473.705 42.732 473.868 43.0773 474.157 43.348C474.456 43.6187 474.871 43.754 475.403 43.754C475.954 43.754 476.383 43.6233 476.691 43.362C476.999 43.0913 477.153 42.746 477.153 42.326C477.153 41.9993 477.055 41.7333 476.859 41.528C476.673 41.3227 476.435 41.164 476.145 41.052C475.865 40.94 475.473 40.8187 474.969 40.688C474.335 40.52 473.817 40.352 473.415 40.184C473.023 40.0067 472.687 39.736 472.407 39.372C472.127 39.008 471.987 38.5227 471.987 37.916C471.987 37.356 472.127 36.866 472.407 36.446C472.687 36.026 473.079 35.704 473.583 35.48C474.087 35.256 474.671 35.144 475.333 35.144C476.276 35.144 477.046 35.382 477.643 35.858C478.25 36.3247 478.586 36.9687 478.651 37.79H476.887C476.859 37.4353 476.691 37.132 476.383 36.88C476.075 36.628 475.669 36.502 475.165 36.502C474.708 36.502 474.335 36.6187 474.045 36.852C473.756 37.0853 473.611 37.4213 473.611 37.86C473.611 38.1587 473.7 38.406 473.877 38.602C474.064 38.7887 474.297 38.938 474.577 39.05C474.857 39.162 475.24 39.2833 475.725 39.414C476.369 39.5913 476.892 39.7687 477.293 39.946C477.704 40.1233 478.049 40.3987 478.329 40.772C478.619 41.136 478.763 41.626 478.763 42.242C478.763 42.7367 478.628 43.2033 478.357 43.642C478.096 44.0807 477.709 44.4353 477.195 44.706C476.691 44.9673 476.094 45.098 475.403 45.098ZM487.717 40.954C487.717 41.2433 487.698 41.5047 487.661 41.738H481.767C481.813 42.354 482.042 42.8487 482.453 43.222C482.863 43.5953 483.367 43.782 483.965 43.782C484.823 43.782 485.43 43.4227 485.785 42.704H487.507C487.273 43.4133 486.849 43.9967 486.233 44.454C485.626 44.902 484.87 45.126 483.965 45.126C483.227 45.126 482.565 44.9627 481.977 44.636C481.398 44.3 480.941 43.8333 480.605 43.236C480.278 42.6293 480.115 41.9293 480.115 41.136C480.115 40.3427 480.273 39.6473 480.591 39.05C480.917 38.4433 481.37 37.9767 481.949 37.65C482.537 37.3233 483.209 37.16 483.965 37.16C484.693 37.16 485.341 37.3187 485.911 37.636C486.48 37.9533 486.923 38.4013 487.241 38.98C487.558 39.5493 487.717 40.2073 487.717 40.954ZM486.051 40.45C486.041 39.862 485.831 39.3907 485.421 39.036C485.01 38.6813 484.501 38.504 483.895 38.504C483.344 38.504 482.873 38.6813 482.481 39.036C482.089 39.3813 481.855 39.8527 481.781 40.45H486.051ZM498.625 37.16C499.232 37.16 499.773 37.286 500.249 37.538C500.735 37.79 501.113 38.1633 501.383 38.658C501.663 39.1527 501.803 39.75 501.803 40.45V45H500.221V40.688C500.221 39.9973 500.049 39.47 499.703 39.106C499.358 38.7327 498.887 38.546 498.289 38.546C497.692 38.546 497.216 38.7327 496.861 39.106C496.516 39.47 496.343 39.9973 496.343 40.688V45H494.761V40.688C494.761 39.9973 494.589 39.47 494.243 39.106C493.898 38.7327 493.427 38.546 492.829 38.546C492.232 38.546 491.756 38.7327 491.401 39.106C491.056 39.47 490.883 39.9973 490.883 40.688V45H489.287V37.286H490.883V38.168C491.145 37.8507 491.476 37.6033 491.877 37.426C492.279 37.2487 492.708 37.16 493.165 37.16C493.781 37.16 494.332 37.2907 494.817 37.552C495.303 37.8133 495.676 38.1913 495.937 38.686C496.171 38.2193 496.535 37.8507 497.029 37.58C497.524 37.3 498.056 37.16 498.625 37.16ZM503.302 41.108C503.302 40.3333 503.461 39.6473 503.778 39.05C504.105 38.4527 504.544 37.9907 505.094 37.664C505.654 37.328 506.27 37.16 506.942 37.16C507.549 37.16 508.076 37.2813 508.524 37.524C508.982 37.7573 509.346 38.0513 509.616 38.406V37.286H511.226V45H509.616V43.852C509.346 44.216 508.977 44.5193 508.51 44.762C508.044 45.0047 507.512 45.126 506.914 45.126C506.252 45.126 505.645 44.958 505.094 44.622C504.544 44.2767 504.105 43.8007 503.778 43.194C503.461 42.578 503.302 41.8827 503.302 41.108ZM509.616 41.136C509.616 40.604 509.504 40.142 509.28 39.75C509.066 39.358 508.781 39.0593 508.426 38.854C508.072 38.6487 507.689 38.546 507.278 38.546C506.868 38.546 506.485 38.6487 506.13 38.854C505.776 39.05 505.486 39.344 505.262 39.736C505.048 40.1187 504.94 40.576 504.94 41.108C504.94 41.64 505.048 42.1067 505.262 42.508C505.486 42.9093 505.776 43.2173 506.13 43.432C506.494 43.6373 506.877 43.74 507.278 43.74C507.689 43.74 508.072 43.6373 508.426 43.432C508.781 43.2267 509.066 42.928 509.28 42.536C509.504 42.1347 509.616 41.668 509.616 41.136ZM517.214 37.16C517.821 37.16 518.362 37.286 518.838 37.538C519.324 37.79 519.702 38.1633 519.972 38.658C520.243 39.1527 520.378 39.75 520.378 40.45V45H518.796V40.688C518.796 39.9973 518.624 39.47 518.278 39.106C517.933 38.7327 517.462 38.546 516.864 38.546C516.267 38.546 515.791 38.7327 515.436 39.106C515.091 39.47 514.918 39.9973 514.918 40.688V45H513.322V37.286H514.918V38.168C515.18 37.8507 515.511 37.6033 515.912 37.426C516.323 37.2487 516.757 37.16 517.214 37.16ZM521.882 41.108C521.882 40.3333 522.041 39.6473 522.358 39.05C522.685 38.4527 523.124 37.9907 523.674 37.664C524.234 37.328 524.85 37.16 525.522 37.16C526.129 37.16 526.656 37.2813 527.104 37.524C527.562 37.7573 527.926 38.0513 528.196 38.406V37.286H529.806V45H528.196V43.852C527.926 44.216 527.557 44.5193 527.09 44.762C526.624 45.0047 526.092 45.126 525.494 45.126C524.832 45.126 524.225 44.958 523.674 44.622C523.124 44.2767 522.685 43.8007 522.358 43.194C522.041 42.578 521.882 41.8827 521.882 41.108ZM528.196 41.136C528.196 40.604 528.084 40.142 527.86 39.75C527.646 39.358 527.361 39.0593 527.006 38.854C526.652 38.6487 526.269 38.546 525.858 38.546C525.448 38.546 525.065 38.6487 524.71 38.854C524.356 39.05 524.066 39.344 523.842 39.736C523.628 40.1187 523.52 40.576 523.52 41.108C523.52 41.64 523.628 42.1067 523.842 42.508C524.066 42.9093 524.356 43.2173 524.71 43.432C525.074 43.6373 525.457 43.74 525.858 43.74C526.269 43.74 526.652 43.6373 527.006 43.432C527.361 43.2267 527.646 42.928 527.86 42.536C528.084 42.1347 528.196 41.668 528.196 41.136Z" fill="black"/>
<rect x="540.75" y="25.75" width="63.5" height="28.5024" rx="8.25" fill="black"/>
<path d="M565.525 43.012H561.451L560.751 45H559.085L562.571 35.256H564.419L567.905 45H566.225L565.525 43.012ZM565.077 41.71L563.495 37.188L561.899 41.71H565.077ZM573.313 37.16C573.92 37.16 574.461 37.286 574.937 37.538C575.422 37.79 575.8 38.1633 576.071 38.658C576.342 39.1527 576.477 39.75 576.477 40.45V45H574.895V40.688C574.895 39.9973 574.722 39.47 574.377 39.106C574.032 38.7327 573.56 38.546 572.963 38.546C572.366 38.546 571.89 38.7327 571.535 39.106C571.19 39.47 571.017 39.9973 571.017 40.688V45H569.421V37.286H571.017V38.168C571.278 37.8507 571.61 37.6033 572.011 37.426C572.422 37.2487 572.856 37.16 573.313 37.16ZM570.779 36.488C570.854 35.9467 571.031 35.5407 571.311 35.27C571.591 34.99 571.941 34.85 572.361 34.85C572.538 34.85 572.692 34.878 572.823 34.934C572.954 34.99 573.112 35.074 573.299 35.186C573.439 35.2793 573.556 35.3493 573.649 35.396C573.752 35.4427 573.864 35.466 573.985 35.466C574.144 35.466 574.274 35.4193 574.377 35.326C574.489 35.2233 574.559 35.074 574.587 34.878H575.483C575.408 35.4193 575.231 35.83 574.951 36.11C574.671 36.3807 574.321 36.516 573.901 36.516C573.724 36.516 573.565 36.488 573.425 36.432C573.285 36.3667 573.131 36.278 572.963 36.166C572.795 36.0633 572.664 35.9933 572.571 35.956C572.487 35.9093 572.389 35.886 572.277 35.886C572.118 35.886 571.983 35.9373 571.871 36.04C571.768 36.1427 571.703 36.292 571.675 36.488H570.779ZM581.859 45.126C581.131 45.126 580.473 44.9627 579.885 44.636C579.297 44.3 578.835 43.8333 578.499 43.236C578.163 42.6293 577.995 41.9293 577.995 41.136C577.995 40.352 578.168 39.6567 578.513 39.05C578.858 38.4433 579.33 37.9767 579.927 37.65C580.524 37.3233 581.192 37.16 581.929 37.16C582.666 37.16 583.334 37.3233 583.931 37.65C584.528 37.9767 585 38.4433 585.345 39.05C585.69 39.6567 585.863 40.352 585.863 41.136C585.863 41.92 585.686 42.6153 585.331 43.222C584.976 43.8287 584.491 44.3 583.875 44.636C583.268 44.9627 582.596 45.126 581.859 45.126ZM581.859 43.74C582.27 43.74 582.652 43.642 583.007 43.446C583.371 43.25 583.665 42.956 583.889 42.564C584.113 42.172 584.225 41.696 584.225 41.136C584.225 40.576 584.118 40.1047 583.903 39.722C583.688 39.33 583.404 39.036 583.049 38.84C582.694 38.644 582.312 38.546 581.901 38.546C581.49 38.546 581.108 38.644 580.753 38.84C580.408 39.036 580.132 39.33 579.927 39.722C579.722 40.1047 579.619 40.576 579.619 41.136C579.619 41.9667 579.829 42.6107 580.249 43.068C580.678 43.516 581.215 43.74 581.859 43.74Z" fill="white"/>
<rect x="540.75" y="25.75" width="63.5" height="28.5024" rx="8.25" stroke="#E9E9E9" stroke-width="0.5"/>
<path d="M54.74 102.984H49.826V106.176C50.0406 105.877 50.358 105.635 50.778 105.448C51.198 105.252 51.6506 105.154 52.136 105.154C52.9106 105.154 53.5406 105.317 54.026 105.644C54.5113 105.961 54.8566 106.377 55.062 106.89C55.2766 107.394 55.384 107.931 55.384 108.5C55.384 109.172 55.258 109.774 55.006 110.306C54.754 110.838 54.3666 111.258 53.844 111.566C53.3306 111.874 52.6913 112.028 51.926 112.028C50.946 112.028 50.1526 111.776 49.546 111.272C48.9393 110.768 48.5706 110.096 48.44 109.256H49.686C49.8073 109.788 50.064 110.203 50.456 110.502C50.848 110.801 51.3426 110.95 51.94 110.95C52.6773 110.95 53.2326 110.731 53.606 110.292C53.9793 109.844 54.166 109.256 54.166 108.528C54.166 107.8 53.9793 107.24 53.606 106.848C53.2326 106.447 52.682 106.246 51.954 106.246C51.4593 106.246 51.0253 106.367 50.652 106.61C50.288 106.843 50.022 107.165 49.854 107.576H48.65V101.864H54.74V102.984ZM70.9174 102.312V112H69.6434V104.776L66.4234 112H65.5274L62.2934 104.762V112H61.0194V102.312H62.3914L65.9754 110.32L69.5594 102.312H70.9174Z" fill="black" fill-opacity="0.6"/>
<path d="M48.8048 135.426C48.8702 134.567 49.2015 133.895 49.7988 133.41C50.3962 132.925 51.1708 132.682 52.1228 132.682C52.7575 132.682 53.3035 132.799 53.7608 133.032C54.2275 133.256 54.5775 133.564 54.8108 133.956C55.0535 134.348 55.1748 134.791 55.1748 135.286C55.1748 135.865 55.0068 136.364 54.6708 136.784C54.3442 137.204 53.9148 137.475 53.3828 137.596V137.666C53.9895 137.815 54.4702 138.109 54.8248 138.548C55.1795 138.987 55.3568 139.561 55.3568 140.27C55.3568 140.802 55.2355 141.283 54.9928 141.712C54.7502 142.132 54.3862 142.463 53.9008 142.706C53.4155 142.949 52.8322 143.07 52.1508 143.07C51.1615 143.07 50.3495 142.813 49.7148 142.3C49.0802 141.777 48.7255 141.04 48.6508 140.088H49.8828C49.9482 140.648 50.1768 141.105 50.5688 141.46C50.9608 141.815 51.4835 141.992 52.1368 141.992C52.7902 141.992 53.2848 141.824 53.6208 141.488C53.9662 141.143 54.1388 140.699 54.1388 140.158C54.1388 139.458 53.9055 138.954 53.4388 138.646C52.9722 138.338 52.2675 138.184 51.3248 138.184H51.0028V137.12H51.3388C52.1975 137.111 52.8462 136.971 53.2848 136.7C53.7235 136.42 53.9428 135.991 53.9428 135.412C53.9428 134.917 53.7795 134.521 53.4528 134.222C53.1355 133.923 52.6782 133.774 52.0808 133.774C51.5022 133.774 51.0355 133.923 50.6808 134.222C50.3262 134.521 50.1162 134.922 50.0508 135.426H48.8048ZM70.9174 133.312V143H69.6434V135.776L66.4234 143H65.5274L62.2934 135.762V143H61.0194V133.312H62.3914L65.9754 141.32L69.5594 133.312H70.9174Z" fill="black" fill-opacity="0.6"/>
<path d="M52.2566 165.04V163.878H54.8886V174H53.6006V165.04H52.2566ZM70.9174 164.312V174H69.6434V166.776L66.4234 174H65.5274L62.2934 166.762V174H61.0194V164.312H62.3914L65.9754 172.32L69.5594 164.312H70.9174Z" fill="black" fill-opacity="0.6"/>
<path d="M41.7601 195.872L37.8681 205H36.5801L40.5281 195.998H35.1241V194.906H41.7601V195.872ZM49.6267 195.984H44.7127V199.176C44.9274 198.877 45.2447 198.635 45.6647 198.448C46.0847 198.252 46.5374 198.154 47.0227 198.154C47.7974 198.154 48.4274 198.317 48.9127 198.644C49.398 198.961 49.7434 199.377 49.9487 199.89C50.1634 200.394 50.2707 200.931 50.2707 201.5C50.2707 202.172 50.1447 202.774 49.8927 203.306C49.6407 203.838 49.2534 204.258 48.7307 204.566C48.2174 204.874 47.578 205.028 46.8127 205.028C45.8327 205.028 45.0394 204.776 44.4327 204.272C43.826 203.768 43.4574 203.096 43.3267 202.256H44.5727C44.694 202.788 44.9507 203.203 45.3427 203.502C45.7347 203.801 46.2294 203.95 46.8267 203.95C47.564 203.95 48.1194 203.731 48.4927 203.292C48.866 202.844 49.0527 202.256 49.0527 201.528C49.0527 200.8 48.866 200.24 48.4927 199.848C48.1194 199.447 47.5687 199.246 46.8407 199.246C46.346 199.246 45.912 199.367 45.5387 199.61C45.1747 199.843 44.9087 200.165 44.7407 200.576H43.5367V194.864H49.6267V195.984ZM51.9637 199.834C51.9637 198.229 52.225 196.978 52.7477 196.082C53.2704 195.177 54.185 194.724 55.4917 194.724C56.789 194.724 57.699 195.177 58.2217 196.082C58.7444 196.978 59.0057 198.229 59.0057 199.834C59.0057 201.467 58.7444 202.737 58.2217 203.642C57.699 204.547 56.789 205 55.4917 205C54.185 205 53.2704 204.547 52.7477 203.642C52.225 202.737 51.9637 201.467 51.9637 199.834ZM57.7457 199.834C57.7457 199.022 57.6897 198.336 57.5777 197.776C57.475 197.207 57.2557 196.749 56.9197 196.404C56.593 196.059 56.117 195.886 55.4917 195.886C54.857 195.886 54.3717 196.059 54.0357 196.404C53.709 196.749 53.4897 197.207 53.3777 197.776C53.275 198.336 53.2237 199.022 53.2237 199.834C53.2237 200.674 53.275 201.379 53.3777 201.948C53.4897 202.517 53.709 202.975 54.0357 203.32C54.3717 203.665 54.857 203.838 55.4917 203.838C56.117 203.838 56.593 203.665 56.9197 203.32C57.2557 202.975 57.475 202.517 57.5777 201.948C57.6897 201.379 57.7457 200.674 57.7457 199.834ZM69.9891 205L65.9711 200.548V205H64.6971V195.242H65.9711V199.764L70.0031 195.242H71.6131L67.1891 200.128L71.6551 205H69.9891Z" fill="black" fill-opacity="0.6"/>
<path d="M40.8357 226.984H35.9217V230.176C36.1363 229.877 36.4537 229.635 36.8737 229.448C37.2937 229.252 37.7463 229.154 38.2317 229.154C39.0063 229.154 39.6363 229.317 40.1217 229.644C40.607 229.961 40.9523 230.377 41.1577 230.89C41.3723 231.394 41.4797 231.931 41.4797 232.5C41.4797 233.172 41.3537 233.774 41.1017 234.306C40.8497 234.838 40.4623 235.258 39.9397 235.566C39.4263 235.874 38.787 236.028 38.0217 236.028C37.0417 236.028 36.2483 235.776 35.6417 235.272C35.035 234.768 34.6663 234.096 34.5357 233.256H35.7817C35.903 233.788 36.1597 234.203 36.5517 234.502C36.9437 234.801 37.4383 234.95 38.0357 234.95C38.773 234.95 39.3283 234.731 39.7017 234.292C40.075 233.844 40.2617 233.256 40.2617 232.528C40.2617 231.8 40.075 231.24 39.7017 230.848C39.3283 230.447 38.7777 230.246 38.0497 230.246C37.555 230.246 37.121 230.367 36.7477 230.61C36.3837 230.843 36.1177 231.165 35.9497 231.576H34.7457V225.864H40.8357V226.984ZM43.1727 230.834C43.1727 229.229 43.434 227.978 43.9567 227.082C44.4794 226.177 45.394 225.724 46.7007 225.724C47.998 225.724 48.908 226.177 49.4307 227.082C49.9534 227.978 50.2147 229.229 50.2147 230.834C50.2147 232.467 49.9534 233.737 49.4307 234.642C48.908 235.547 47.998 236 46.7007 236C45.394 236 44.4794 235.547 43.9567 234.642C43.434 233.737 43.1727 232.467 43.1727 230.834ZM48.9547 230.834C48.9547 230.022 48.8987 229.336 48.7867 228.776C48.684 228.207 48.4647 227.749 48.1287 227.404C47.802 227.059 47.326 226.886 46.7007 226.886C46.066 226.886 45.5807 227.059 45.2447 227.404C44.918 227.749 44.6987 228.207 44.5867 228.776C44.484 229.336 44.4327 230.022 44.4327 230.834C44.4327 231.674 44.484 232.379 44.5867 232.948C44.6987 233.517 44.918 233.975 45.2447 234.32C45.5807 234.665 46.066 234.838 46.7007 234.838C47.326 234.838 47.802 234.665 48.1287 234.32C48.4647 233.975 48.684 233.517 48.7867 232.948C48.8987 232.379 48.9547 231.674 48.9547 230.834ZM51.9637 230.834C51.9637 229.229 52.225 227.978 52.7477 227.082C53.2704 226.177 54.185 225.724 55.4917 225.724C56.789 225.724 57.699 226.177 58.2217 227.082C58.7444 227.978 59.0057 229.229 59.0057 230.834C59.0057 232.467 58.7444 233.737 58.2217 234.642C57.699 235.547 56.789 236 55.4917 236C54.185 236 53.2704 235.547 52.7477 234.642C52.225 233.737 51.9637 232.467 51.9637 230.834ZM57.7457 230.834C57.7457 230.022 57.6897 229.336 57.5777 228.776C57.475 228.207 57.2557 227.749 56.9197 227.404C56.593 227.059 56.117 226.886 55.4917 226.886C54.857 226.886 54.3717 227.059 54.0357 227.404C53.709 227.749 53.4897 228.207 53.3777 228.776C53.275 229.336 53.2237 230.022 53.2237 230.834C53.2237 231.674 53.275 232.379 53.3777 232.948C53.4897 233.517 53.709 233.975 54.0357 234.32C54.3717 234.665 54.857 234.838 55.4917 234.838C56.117 234.838 56.593 234.665 56.9197 234.32C57.2557 233.975 57.475 233.517 57.5777 232.948C57.6897 232.379 57.7457 231.674 57.7457 230.834ZM69.9891 236L65.9711 231.548V236H64.6971V226.242H65.9711V230.764L70.0031 226.242H71.6131L67.1891 231.128L71.6551 236H69.9891Z" fill="black" fill-opacity="0.6"/>
<path d="M34.966 265.978C36.1513 265.026 37.08 264.247 37.752 263.64C38.424 263.024 38.9886 262.385 39.446 261.722C39.9126 261.05 40.146 260.392 40.146 259.748C40.146 259.141 39.9966 258.665 39.698 258.32C39.4086 257.965 38.9373 257.788 38.284 257.788C37.6493 257.788 37.1546 257.989 36.8 258.39C36.4546 258.782 36.268 259.309 36.24 259.972H35.008C35.0453 258.927 35.3626 258.119 35.96 257.55C36.5573 256.981 37.3273 256.696 38.27 256.696C39.2313 256.696 39.992 256.962 40.552 257.494C41.1213 258.026 41.406 258.759 41.406 259.692C41.406 260.467 41.1726 261.223 40.706 261.96C40.2486 262.688 39.726 263.332 39.138 263.892C38.55 264.443 37.7986 265.087 36.884 265.824H41.7V266.888H34.966V265.978ZM49.6267 257.984H44.7127V261.176C44.9274 260.877 45.2447 260.635 45.6647 260.448C46.0847 260.252 46.5374 260.154 47.0227 260.154C47.7974 260.154 48.4274 260.317 48.9127 260.644C49.398 260.961 49.7434 261.377 49.9487 261.89C50.1634 262.394 50.2707 262.931 50.2707 263.5C50.2707 264.172 50.1447 264.774 49.8927 265.306C49.6407 265.838 49.2534 266.258 48.7307 266.566C48.2174 266.874 47.578 267.028 46.8127 267.028C45.8327 267.028 45.0394 266.776 44.4327 266.272C43.826 265.768 43.4574 265.096 43.3267 264.256H44.5727C44.694 264.788 44.9507 265.203 45.3427 265.502C45.7347 265.801 46.2294 265.95 46.8267 265.95C47.564 265.95 48.1194 265.731 48.4927 265.292C48.866 264.844 49.0527 264.256 49.0527 263.528C49.0527 262.8 48.866 262.24 48.4927 261.848C48.1194 261.447 47.5687 261.246 46.8407 261.246C46.346 261.246 45.912 261.367 45.5387 261.61C45.1747 261.843 44.9087 262.165 44.7407 262.576H43.5367V256.864H49.6267V257.984ZM51.9637 261.834C51.9637 260.229 52.225 258.978 52.7477 258.082C53.2704 257.177 54.185 256.724 55.4917 256.724C56.789 256.724 57.699 257.177 58.2217 258.082C58.7444 258.978 59.0057 260.229 59.0057 261.834C59.0057 263.467 58.7444 264.737 58.2217 265.642C57.699 266.547 56.789 267 55.4917 267C54.185 267 53.2704 266.547 52.7477 265.642C52.225 264.737 51.9637 263.467 51.9637 261.834ZM57.7457 261.834C57.7457 261.022 57.6897 260.336 57.5777 259.776C57.475 259.207 57.2557 258.749 56.9197 258.404C56.593 258.059 56.117 257.886 55.4917 257.886C54.857 257.886 54.3717 258.059 54.0357 258.404C53.709 258.749 53.4897 259.207 53.3777 259.776C53.275 260.336 53.2237 261.022 53.2237 261.834C53.2237 262.674 53.275 263.379 53.3777 263.948C53.4897 264.517 53.709 264.975 54.0357 265.32C54.3717 265.665 54.857 265.838 55.4917 265.838C56.117 265.838 56.593 265.665 56.9197 265.32C57.2557 264.975 57.475 264.517 57.5777 263.948C57.6897 263.379 57.7457 262.674 57.7457 261.834ZM69.9891 267L65.9711 262.548V267H64.6971V257.242H65.9711V261.764L70.0031 257.242H71.6131L67.1891 262.128L71.6551 267H69.9891Z" fill="black" fill-opacity="0.6"/>
<path d="M38.3523 289.04V287.878H40.9843V298H39.6963V289.04H38.3523ZM43.1727 292.834C43.1727 291.229 43.434 289.978 43.9567 289.082C44.4794 288.177 45.394 287.724 46.7007 287.724C47.998 287.724 48.908 288.177 49.4307 289.082C49.9534 289.978 50.2147 291.229 50.2147 292.834C50.2147 294.467 49.9534 295.737 49.4307 296.642C48.908 297.547 47.998 298 46.7007 298C45.394 298 44.4794 297.547 43.9567 296.642C43.434 295.737 43.1727 294.467 43.1727 292.834ZM48.9547 292.834C48.9547 292.022 48.8987 291.336 48.7867 290.776C48.684 290.207 48.4647 289.749 48.1287 289.404C47.802 289.059 47.326 288.886 46.7007 288.886C46.066 288.886 45.5807 289.059 45.2447 289.404C44.918 289.749 44.6987 290.207 44.5867 290.776C44.484 291.336 44.4327 292.022 44.4327 292.834C44.4327 293.674 44.484 294.379 44.5867 294.948C44.6987 295.517 44.918 295.975 45.2447 296.32C45.5807 296.665 46.066 296.838 46.7007 296.838C47.326 296.838 47.802 296.665 48.1287 296.32C48.4647 295.975 48.684 295.517 48.7867 294.948C48.8987 294.379 48.9547 293.674 48.9547 292.834ZM51.9637 292.834C51.9637 291.229 52.225 289.978 52.7477 289.082C53.2704 288.177 54.185 287.724 55.4917 287.724C56.789 287.724 57.699 288.177 58.2217 289.082C58.7444 289.978 59.0057 291.229 59.0057 292.834C59.0057 294.467 58.7444 295.737 58.2217 296.642C57.699 297.547 56.789 298 55.4917 298C54.185 298 53.2704 297.547 52.7477 296.642C52.225 295.737 51.9637 294.467 51.9637 292.834ZM57.7457 292.834C57.7457 292.022 57.6897 291.336 57.5777 290.776C57.475 290.207 57.2557 289.749 56.9197 289.404C56.593 289.059 56.117 288.886 55.4917 288.886C54.857 288.886 54.3717 289.059 54.0357 289.404C53.709 289.749 53.4897 290.207 53.3777 290.776C53.275 291.336 53.2237 292.022 53.2237 292.834C53.2237 293.674 53.275 294.379 53.3777 294.948C53.4897 295.517 53.709 295.975 54.0357 296.32C54.3717 296.665 54.857 296.838 55.4917 296.838C56.117 296.838 56.593 296.665 56.9197 296.32C57.2557 295.975 57.475 295.517 57.5777 294.948C57.6897 294.379 57.7457 293.674 57.7457 292.834ZM69.9891 298L65.9711 293.548V298H64.6971V288.242H65.9711V292.764L70.0031 288.242H71.6131L67.1891 293.128L71.6551 298H69.9891Z" fill="black" fill-opacity="0.6"/>
<path d="M91 298C122.702 298 148.136 127 183.537 127C218.938 127 238.473 279.959 278.184 279.959C317.894 279.959 335.31 198.171 368.61 198.171C401.911 198.171 424.961 247.572 460.316 247.572C495.671 247.572 520.785 146.258 554.515 146.258C588.246 146.258 569.476 181.857 603 181.857" stroke="#E2B950" stroke-width="6" stroke-linecap="round"/>
<path d="M183.159 127C147.52 127 121.915 298.046 90 298.046V301H347.721H605.442V181.872C571.693 181.872 590.589 146.263 556.631 146.263C522.674 146.263 497.392 247.604 461.799 247.604C426.206 247.604 403.001 198.19 369.477 198.19C335.952 198.19 319.477 280.5 279.5 280.5C239.523 280.5 218.798 127 183.159 127Z" fill="url(#paint0_linear_26_565)"/>
<path d="M93.8052 319.242V326.452C93.8052 327.255 93.5579 327.899 93.0632 328.384C92.5685 328.86 91.9152 329.098 91.1032 329.098C90.2819 329.098 89.6239 328.855 89.1292 328.37C88.6345 327.875 88.3872 327.203 88.3872 326.354H89.6612C89.6705 326.83 89.7919 327.217 90.0252 327.516C90.2679 327.815 90.6272 327.964 91.1032 327.964C91.5792 327.964 91.9339 327.824 92.1672 327.544C92.4005 327.255 92.5172 326.891 92.5172 326.452V319.242H93.8052ZM95.839 325.136C95.839 324.352 95.9977 323.666 96.315 323.078C96.6324 322.481 97.0664 322.019 97.617 321.692C98.177 321.365 98.7977 321.202 99.479 321.202C100.151 321.202 100.734 321.347 101.229 321.636C101.724 321.925 102.092 322.289 102.335 322.728V321.328H103.623V329H102.335V327.572C102.083 328.02 101.705 328.393 101.201 328.692C100.706 328.981 100.128 329.126 99.465 329.126C98.7837 329.126 98.1677 328.958 97.617 328.622C97.0664 328.286 96.6324 327.815 96.315 327.208C95.9977 326.601 95.839 325.911 95.839 325.136ZM102.335 325.15C102.335 324.571 102.218 324.067 101.985 323.638C101.752 323.209 101.434 322.882 101.033 322.658C100.641 322.425 100.207 322.308 99.731 322.308C99.255 322.308 98.821 322.42 98.429 322.644C98.037 322.868 97.7244 323.195 97.491 323.624C97.2577 324.053 97.141 324.557 97.141 325.136C97.141 325.724 97.2577 326.237 97.491 326.676C97.7244 327.105 98.037 327.437 98.429 327.67C98.821 327.894 99.255 328.006 99.731 328.006C100.207 328.006 100.641 327.894 101.033 327.67C101.434 327.437 101.752 327.105 101.985 326.676C102.218 326.237 102.335 325.729 102.335 325.15ZM109.514 321.188C110.447 321.188 111.203 321.473 111.782 322.042C112.361 322.602 112.65 323.414 112.65 324.478V329H111.39V324.66C111.39 323.895 111.199 323.311 110.816 322.91C110.433 322.499 109.911 322.294 109.248 322.294C108.576 322.294 108.039 322.504 107.638 322.924C107.246 323.344 107.05 323.955 107.05 324.758V329H105.776V321.328H107.05V322.42C107.302 322.028 107.643 321.725 108.072 321.51C108.511 321.295 108.991 321.188 109.514 321.188Z" fill="black" fill-opacity="0.6"/>
<path d="M139.192 319.242V320.278H134.95V323.568H138.394V324.604H134.95V329H133.676V319.242H139.192ZM147.731 324.87C147.731 325.113 147.717 325.369 147.689 325.64H141.557C141.604 326.396 141.86 326.989 142.327 327.418C142.803 327.838 143.377 328.048 144.049 328.048C144.6 328.048 145.057 327.922 145.421 327.67C145.794 327.409 146.056 327.063 146.205 326.634H147.577C147.372 327.371 146.961 327.973 146.345 328.44C145.729 328.897 144.964 329.126 144.049 329.126C143.321 329.126 142.668 328.963 142.089 328.636C141.52 328.309 141.072 327.847 140.745 327.25C140.418 326.643 140.255 325.943 140.255 325.15C140.255 324.357 140.414 323.661 140.731 323.064C141.048 322.467 141.492 322.009 142.061 321.692C142.64 321.365 143.302 321.202 144.049 321.202C144.777 321.202 145.421 321.361 145.981 321.678C146.541 321.995 146.97 322.434 147.269 322.994C147.577 323.545 147.731 324.17 147.731 324.87ZM146.415 324.604C146.415 324.119 146.308 323.703 146.093 323.358C145.878 323.003 145.584 322.737 145.211 322.56C144.847 322.373 144.441 322.28 143.993 322.28C143.349 322.28 142.798 322.485 142.341 322.896C141.893 323.307 141.636 323.876 141.571 324.604H146.415ZM150.687 322.756C150.948 322.299 151.331 321.925 151.835 321.636C152.339 321.347 152.913 321.202 153.557 321.202C154.247 321.202 154.868 321.365 155.419 321.692C155.969 322.019 156.403 322.481 156.721 323.078C157.038 323.666 157.197 324.352 157.197 325.136C157.197 325.911 157.038 326.601 156.721 327.208C156.403 327.815 155.965 328.286 155.405 328.622C154.854 328.958 154.238 329.126 153.557 329.126C152.894 329.126 152.311 328.981 151.807 328.692C151.312 328.403 150.939 328.034 150.687 327.586V329H149.413V318.64H150.687V322.756ZM155.895 325.136C155.895 324.557 155.778 324.053 155.545 323.624C155.311 323.195 154.994 322.868 154.593 322.644C154.201 322.42 153.767 322.308 153.291 322.308C152.824 322.308 152.39 322.425 151.989 322.658C151.597 322.882 151.279 323.213 151.037 323.652C150.803 324.081 150.687 324.581 150.687 325.15C150.687 325.729 150.803 326.237 151.037 326.676C151.279 327.105 151.597 327.437 151.989 327.67C152.39 327.894 152.824 328.006 153.291 328.006C153.767 328.006 154.201 327.894 154.593 327.67C154.994 327.437 155.311 327.105 155.545 326.676C155.778 326.237 155.895 325.724 155.895 325.136Z" fill="black" fill-opacity="0.6"/>
<path d="M186.793 319.312V329H185.519V321.776L182.299 329H181.403L178.169 321.762V329H176.895V319.312H178.267L181.851 327.32L185.435 319.312H186.793ZM188.478 325.136C188.478 324.352 188.636 323.666 188.954 323.078C189.271 322.481 189.705 322.019 190.256 321.692C190.816 321.365 191.436 321.202 192.118 321.202C192.79 321.202 193.373 321.347 193.868 321.636C194.362 321.925 194.731 322.289 194.974 322.728V321.328H196.262V329H194.974V327.572C194.722 328.02 194.344 328.393 193.84 328.692C193.345 328.981 192.766 329.126 192.104 329.126C191.422 329.126 190.806 328.958 190.256 328.622C189.705 328.286 189.271 327.815 188.954 327.208C188.636 326.601 188.478 325.911 188.478 325.136ZM194.974 325.15C194.974 324.571 194.857 324.067 194.624 323.638C194.39 323.209 194.073 322.882 193.672 322.658C193.28 322.425 192.846 322.308 192.37 322.308C191.894 322.308 191.46 322.42 191.068 322.644C190.676 322.868 190.363 323.195 190.13 323.624C189.896 324.053 189.78 324.557 189.78 325.136C189.78 325.724 189.896 326.237 190.13 326.676C190.363 327.105 190.676 327.437 191.068 327.67C191.46 327.894 191.894 328.006 192.37 328.006C192.846 328.006 193.28 327.894 193.672 327.67C194.073 327.437 194.39 327.105 194.624 326.676C194.857 326.237 194.974 325.729 194.974 325.15ZM199.689 322.574C199.913 322.135 200.23 321.795 200.641 321.552C201.061 321.309 201.569 321.188 202.167 321.188V322.504H201.831C200.403 322.504 199.689 323.279 199.689 324.828V329H198.415V321.328H199.689V322.574Z" fill="black" fill-opacity="0.6"/>
<path d="M227.966 326.83H223.71L222.926 329H221.582L225.11 319.298H226.58L230.094 329H228.75L227.966 326.83ZM227.602 325.794L225.838 320.866L224.074 325.794H227.602ZM232.906 322.742C233.158 322.303 233.531 321.939 234.026 321.65C234.53 321.351 235.113 321.202 235.776 321.202C236.457 321.202 237.073 321.365 237.624 321.692C238.184 322.019 238.623 322.481 238.94 323.078C239.257 323.666 239.416 324.352 239.416 325.136C239.416 325.911 239.257 326.601 238.94 327.208C238.623 327.815 238.184 328.286 237.624 328.622C237.073 328.958 236.457 329.126 235.776 329.126C235.123 329.126 234.544 328.981 234.04 328.692C233.545 328.393 233.167 328.025 232.906 327.586V332.64H231.632V321.328H232.906V322.742ZM238.114 325.136C238.114 324.557 237.997 324.053 237.764 323.624C237.531 323.195 237.213 322.868 236.812 322.644C236.42 322.42 235.986 322.308 235.51 322.308C235.043 322.308 234.609 322.425 234.208 322.658C233.816 322.882 233.499 323.213 233.256 323.652C233.023 324.081 232.906 324.581 232.906 325.15C232.906 325.729 233.023 326.237 233.256 326.676C233.499 327.105 233.816 327.437 234.208 327.67C234.609 327.894 235.043 328.006 235.51 328.006C235.986 328.006 236.42 327.894 236.812 327.67C237.213 327.437 237.531 327.105 237.764 326.676C237.997 326.237 238.114 325.724 238.114 325.136ZM242.367 322.574C242.591 322.135 242.908 321.795 243.319 321.552C243.739 321.309 244.248 321.188 244.845 321.188V322.504H244.509C243.081 322.504 242.367 323.279 242.367 324.828V329H241.093V321.328H242.367V322.574Z" fill="black" fill-opacity="0.6"/>
<path d="M273.915 319.312V329H272.641V321.776L269.421 329H268.525L265.291 321.762V329H264.017V319.312H265.389L268.973 327.32L272.557 319.312H273.915ZM275.6 325.136C275.6 324.352 275.758 323.666 276.076 323.078C276.393 322.481 276.827 322.019 277.378 321.692C277.938 321.365 278.558 321.202 279.24 321.202C279.912 321.202 280.495 321.347 280.99 321.636C281.484 321.925 281.853 322.289 282.096 322.728V321.328H283.384V329H282.096V327.572C281.844 328.02 281.466 328.393 280.962 328.692C280.467 328.981 279.888 329.126 279.226 329.126C278.544 329.126 277.928 328.958 277.378 328.622C276.827 328.286 276.393 327.815 276.076 327.208C275.758 326.601 275.6 325.911 275.6 325.136ZM282.096 325.15C282.096 324.571 281.979 324.067 281.746 323.638C281.512 323.209 281.195 322.882 280.794 322.658C280.402 322.425 279.968 322.308 279.492 322.308C279.016 322.308 278.582 322.42 278.19 322.644C277.798 322.868 277.485 323.195 277.252 323.624C277.018 324.053 276.902 324.557 276.902 325.136C276.902 325.724 277.018 326.237 277.252 326.676C277.485 327.105 277.798 327.437 278.19 327.67C278.582 327.894 279.016 328.006 279.492 328.006C279.968 328.006 280.402 327.894 280.794 327.67C281.195 327.437 281.512 327.105 281.746 326.676C281.979 326.237 282.096 325.729 282.096 325.15ZM292.145 321.328L287.525 332.612H286.209L287.721 328.916L284.627 321.328H286.041L288.449 327.544L290.829 321.328H292.145Z" fill="black" fill-opacity="0.6"/>
<path d="M313.093 319.242V326.452C313.093 327.255 312.846 327.899 312.351 328.384C311.856 328.86 311.203 329.098 310.391 329.098C309.57 329.098 308.912 328.855 308.417 328.37C307.922 327.875 307.675 327.203 307.675 326.354H308.949C308.958 326.83 309.08 327.217 309.313 327.516C309.556 327.815 309.915 327.964 310.391 327.964C310.867 327.964 311.222 327.824 311.455 327.544C311.688 327.255 311.805 326.891 311.805 326.452V319.242H313.093ZM322.407 321.328V329H321.133V327.866C320.89 328.258 320.549 328.566 320.111 328.79C319.681 329.005 319.205 329.112 318.683 329.112C318.085 329.112 317.549 328.991 317.073 328.748C316.597 328.496 316.219 328.123 315.939 327.628C315.668 327.133 315.533 326.531 315.533 325.822V321.328H316.793V325.654C316.793 326.41 316.984 326.993 317.367 327.404C317.749 327.805 318.272 328.006 318.935 328.006C319.616 328.006 320.153 327.796 320.545 327.376C320.937 326.956 321.133 326.345 321.133 325.542V321.328H322.407ZM328.296 321.188C329.229 321.188 329.985 321.473 330.564 322.042C331.142 322.602 331.432 323.414 331.432 324.478V329H330.172V324.66C330.172 323.895 329.98 323.311 329.598 322.91C329.215 322.499 328.692 322.294 328.03 322.294C327.358 322.294 326.821 322.504 326.42 322.924C326.028 323.344 325.832 323.955 325.832 324.758V329H324.558V321.328H325.832V322.42C326.084 322.028 326.424 321.725 326.854 321.51C327.292 321.295 327.773 321.188 328.296 321.188Z" fill="black" fill-opacity="0.6"/>
<path d="M362.178 319.242V326.452C362.178 327.255 361.931 327.899 361.436 328.384C360.942 328.86 360.288 329.098 359.476 329.098C358.655 329.098 357.997 328.855 357.502 328.37C357.008 327.875 356.76 327.203 356.76 326.354H358.034C358.044 326.83 358.165 327.217 358.398 327.516C358.641 327.815 359 327.964 359.476 327.964C359.952 327.964 360.307 327.824 360.54 327.544C360.774 327.255 360.89 326.891 360.89 326.452V319.242H362.178ZM371.492 321.328V329H370.218V327.866C369.976 328.258 369.635 328.566 369.196 328.79C368.767 329.005 368.291 329.112 367.768 329.112C367.171 329.112 366.634 328.991 366.158 328.748C365.682 328.496 365.304 328.123 365.024 327.628C364.754 327.133 364.618 326.531 364.618 325.822V321.328H365.878V325.654C365.878 326.41 366.07 326.993 366.452 327.404C366.835 327.805 367.358 328.006 368.02 328.006C368.702 328.006 369.238 327.796 369.63 327.376C370.022 326.956 370.218 326.345 370.218 325.542V321.328H371.492ZM374.917 318.64V329H373.643V318.64H374.917Z" fill="black" fill-opacity="0.6"/>
<path d="M401.144 326.83H396.888L396.104 329H394.76L398.288 319.298H399.758L403.272 329H401.928L401.144 326.83ZM400.78 325.794L399.016 320.866L397.252 325.794H400.78ZM411.614 321.328V329H410.34V327.866C410.097 328.258 409.756 328.566 409.318 328.79C408.888 329.005 408.412 329.112 407.89 329.112C407.292 329.112 406.756 328.991 406.28 328.748C405.804 328.496 405.426 328.123 405.146 327.628C404.875 327.133 404.74 326.531 404.74 325.822V321.328H406V325.654C406 326.41 406.191 326.993 406.574 327.404C406.956 327.805 407.479 328.006 408.142 328.006C408.823 328.006 409.36 327.796 409.752 327.376C410.144 326.956 410.34 326.345 410.34 325.542V321.328H411.614ZM416.929 321.202C417.591 321.202 418.17 321.347 418.665 321.636C419.169 321.925 419.542 322.289 419.785 322.728V321.328H421.073V329.168C421.073 329.868 420.923 330.489 420.625 331.03C420.326 331.581 419.897 332.01 419.337 332.318C418.786 332.626 418.142 332.78 417.405 332.78C416.397 332.78 415.557 332.542 414.885 332.066C414.213 331.59 413.816 330.941 413.695 330.12H414.955C415.095 330.587 415.384 330.96 415.823 331.24C416.261 331.529 416.789 331.674 417.405 331.674C418.105 331.674 418.674 331.455 419.113 331.016C419.561 330.577 419.785 329.961 419.785 329.168V327.558C419.533 328.006 419.159 328.379 418.665 328.678C418.17 328.977 417.591 329.126 416.929 329.126C416.247 329.126 415.627 328.958 415.067 328.622C414.516 328.286 414.082 327.815 413.765 327.208C413.447 326.601 413.289 325.911 413.289 325.136C413.289 324.352 413.447 323.666 413.765 323.078C414.082 322.481 414.516 322.019 415.067 321.692C415.627 321.365 416.247 321.202 416.929 321.202ZM419.785 325.15C419.785 324.571 419.668 324.067 419.435 323.638C419.201 323.209 418.884 322.882 418.483 322.658C418.091 322.425 417.657 322.308 417.181 322.308C416.705 322.308 416.271 322.42 415.879 322.644C415.487 322.868 415.174 323.195 414.941 323.624C414.707 324.053 414.591 324.557 414.591 325.136C414.591 325.724 414.707 326.237 414.941 326.676C415.174 327.105 415.487 327.437 415.879 327.67C416.271 327.894 416.705 328.006 417.181 328.006C417.657 328.006 418.091 327.894 418.483 327.67C418.884 327.437 419.201 327.105 419.435 326.676C419.668 326.237 419.785 325.729 419.785 325.15Z" fill="black" fill-opacity="0.6"/>
<path d="M445.546 329.098C444.902 329.098 444.323 328.986 443.81 328.762C443.306 328.529 442.909 328.211 442.62 327.81C442.33 327.399 442.181 326.928 442.172 326.396H443.53C443.576 326.853 443.763 327.241 444.09 327.558C444.426 327.866 444.911 328.02 445.546 328.02C446.152 328.02 446.628 327.871 446.974 327.572C447.328 327.264 447.506 326.872 447.506 326.396C447.506 326.023 447.403 325.719 447.198 325.486C446.992 325.253 446.736 325.075 446.428 324.954C446.12 324.833 445.704 324.702 445.182 324.562C444.538 324.394 444.02 324.226 443.628 324.058C443.245 323.89 442.914 323.629 442.634 323.274C442.363 322.91 442.228 322.425 442.228 321.818C442.228 321.286 442.363 320.815 442.634 320.404C442.904 319.993 443.282 319.676 443.768 319.452C444.262 319.228 444.827 319.116 445.462 319.116C446.376 319.116 447.123 319.345 447.702 319.802C448.29 320.259 448.621 320.866 448.696 321.622H447.296C447.249 321.249 447.053 320.922 446.708 320.642C446.362 320.353 445.905 320.208 445.336 320.208C444.804 320.208 444.37 320.348 444.034 320.628C443.698 320.899 443.53 321.281 443.53 321.776C443.53 322.131 443.628 322.42 443.824 322.644C444.029 322.868 444.276 323.041 444.566 323.162C444.864 323.274 445.28 323.405 445.812 323.554C446.456 323.731 446.974 323.909 447.366 324.086C447.758 324.254 448.094 324.52 448.374 324.884C448.654 325.239 448.794 325.724 448.794 326.34C448.794 326.816 448.668 327.264 448.416 327.684C448.164 328.104 447.79 328.445 447.296 328.706C446.801 328.967 446.218 329.098 445.546 329.098ZM457.669 324.87C457.669 325.113 457.655 325.369 457.627 325.64H451.495C451.541 326.396 451.798 326.989 452.265 327.418C452.741 327.838 453.315 328.048 453.987 328.048C454.537 328.048 454.995 327.922 455.359 327.67C455.732 327.409 455.993 327.063 456.143 326.634H457.515C457.309 327.371 456.899 327.973 456.283 328.44C455.667 328.897 454.901 329.126 453.987 329.126C453.259 329.126 452.605 328.963 452.027 328.636C451.457 328.309 451.009 327.847 450.683 327.25C450.356 326.643 450.193 325.943 450.193 325.15C450.193 324.357 450.351 323.661 450.669 323.064C450.986 322.467 451.429 322.009 451.999 321.692C452.577 321.365 453.24 321.202 453.987 321.202C454.715 321.202 455.359 321.361 455.919 321.678C456.479 321.995 456.908 322.434 457.207 322.994C457.515 323.545 457.669 324.17 457.669 324.87ZM456.353 324.604C456.353 324.119 456.245 323.703 456.031 323.358C455.816 323.003 455.522 322.737 455.149 322.56C454.785 322.373 454.379 322.28 453.931 322.28C453.287 322.28 452.736 322.485 452.279 322.896C451.831 323.307 451.574 323.876 451.509 324.604H456.353ZM460.624 322.742C460.876 322.303 461.25 321.939 461.744 321.65C462.248 321.351 462.832 321.202 463.494 321.202C464.176 321.202 464.792 321.365 465.342 321.692C465.902 322.019 466.341 322.481 466.658 323.078C466.976 323.666 467.134 324.352 467.134 325.136C467.134 325.911 466.976 326.601 466.658 327.208C466.341 327.815 465.902 328.286 465.342 328.622C464.792 328.958 464.176 329.126 463.494 329.126C462.841 329.126 462.262 328.981 461.758 328.692C461.264 328.393 460.886 328.025 460.624 327.586V332.64H459.35V321.328H460.624V322.742ZM465.832 325.136C465.832 324.557 465.716 324.053 465.482 323.624C465.249 323.195 464.932 322.868 464.53 322.644C464.138 322.42 463.704 322.308 463.228 322.308C462.762 322.308 462.328 322.425 461.926 322.658C461.534 322.882 461.217 323.213 460.974 323.652C460.741 324.081 460.624 324.581 460.624 325.15C460.624 325.729 460.741 326.237 460.974 326.676C461.217 327.105 461.534 327.437 461.926 327.67C462.328 327.894 462.762 328.006 463.228 328.006C463.704 328.006 464.138 327.894 464.53 327.67C464.932 327.437 465.249 327.105 465.482 326.676C465.716 326.237 465.832 325.724 465.832 325.136Z" fill="black" fill-opacity="0.6"/>
<path d="M489.875 329.098C488.97 329.098 488.144 328.888 487.397 328.468C486.65 328.039 486.058 327.446 485.619 326.69C485.19 325.925 484.975 325.066 484.975 324.114C484.975 323.162 485.19 322.308 485.619 321.552C486.058 320.787 486.65 320.194 487.397 319.774C488.144 319.345 488.97 319.13 489.875 319.13C490.79 319.13 491.62 319.345 492.367 319.774C493.114 320.194 493.702 320.782 494.131 321.538C494.56 322.294 494.775 323.153 494.775 324.114C494.775 325.075 494.56 325.934 494.131 326.69C493.702 327.446 493.114 328.039 492.367 328.468C491.62 328.888 490.79 329.098 489.875 329.098ZM489.875 327.992C490.556 327.992 491.168 327.833 491.709 327.516C492.26 327.199 492.689 326.746 492.997 326.158C493.314 325.57 493.473 324.889 493.473 324.114C493.473 323.33 493.314 322.649 492.997 322.07C492.689 321.482 492.264 321.029 491.723 320.712C491.182 320.395 490.566 320.236 489.875 320.236C489.184 320.236 488.568 320.395 488.027 320.712C487.486 321.029 487.056 321.482 486.739 322.07C486.431 322.649 486.277 323.33 486.277 324.114C486.277 324.889 486.431 325.57 486.739 326.158C487.056 326.746 487.486 327.199 488.027 327.516C488.578 327.833 489.194 327.992 489.875 327.992ZM495.981 325.15C495.981 324.357 496.14 323.666 496.457 323.078C496.774 322.481 497.213 322.019 497.773 321.692C498.342 321.365 498.991 321.202 499.719 321.202C500.662 321.202 501.436 321.431 502.043 321.888C502.659 322.345 503.065 322.98 503.261 323.792H501.889C501.758 323.325 501.502 322.957 501.119 322.686C500.746 322.415 500.279 322.28 499.719 322.28C498.991 322.28 498.403 322.532 497.955 323.036C497.507 323.531 497.283 324.235 497.283 325.15C497.283 326.074 497.507 326.788 497.955 327.292C498.403 327.796 498.991 328.048 499.719 328.048C500.279 328.048 500.746 327.917 501.119 327.656C501.492 327.395 501.749 327.021 501.889 326.536H503.261C503.056 327.32 502.645 327.95 502.029 328.426C501.413 328.893 500.643 329.126 499.719 329.126C498.991 329.126 498.342 328.963 497.773 328.636C497.213 328.309 496.774 327.847 496.457 327.25C496.14 326.653 495.981 325.953 495.981 325.15ZM506.515 322.378V326.9C506.515 327.273 506.594 327.539 506.753 327.698C506.912 327.847 507.187 327.922 507.579 327.922H508.517V329H507.369C506.66 329 506.128 328.837 505.773 328.51C505.418 328.183 505.241 327.647 505.241 326.9V322.378H504.247V321.328H505.241V319.396H506.515V321.328H508.517V322.378H506.515Z" fill="black" fill-opacity="0.6"/>
<path d="M536.096 329H534.822L529.698 321.23V329H528.424V319.228H529.698L534.822 326.984V319.228H536.096V329ZM541.614 329.126C540.895 329.126 540.242 328.963 539.654 328.636C539.075 328.309 538.618 327.847 538.282 327.25C537.955 326.643 537.792 325.943 537.792 325.15C537.792 324.366 537.96 323.675 538.296 323.078C538.641 322.471 539.108 322.009 539.696 321.692C540.284 321.365 540.942 321.202 541.67 321.202C542.398 321.202 543.056 321.365 543.644 321.692C544.232 322.009 544.694 322.467 545.03 323.064C545.375 323.661 545.548 324.357 545.548 325.15C545.548 325.943 545.37 326.643 545.016 327.25C544.67 327.847 544.199 328.309 543.602 328.636C543.004 328.963 542.342 329.126 541.614 329.126ZM541.614 328.006C542.071 328.006 542.5 327.899 542.902 327.684C543.303 327.469 543.625 327.147 543.868 326.718C544.12 326.289 544.246 325.766 544.246 325.15C544.246 324.534 544.124 324.011 543.882 323.582C543.639 323.153 543.322 322.835 542.93 322.63C542.538 322.415 542.113 322.308 541.656 322.308C541.189 322.308 540.76 322.415 540.368 322.63C539.985 322.835 539.677 323.153 539.444 323.582C539.21 324.011 539.094 324.534 539.094 325.15C539.094 325.775 539.206 326.303 539.43 326.732C539.663 327.161 539.971 327.483 540.354 327.698C540.736 327.903 541.156 328.006 541.614 328.006ZM550.079 327.824L552.459 321.328H553.817L550.807 329H549.323L546.313 321.328H547.685L550.079 327.824Z" fill="black" fill-opacity="0.6"/>
<path d="M575.707 319.242C576.771 319.242 577.69 319.443 578.465 319.844C579.249 320.236 579.846 320.801 580.257 321.538C580.677 322.275 580.887 323.143 580.887 324.142C580.887 325.141 580.677 326.009 580.257 326.746C579.846 327.474 579.249 328.034 578.465 328.426C577.69 328.809 576.771 329 575.707 329H572.669V319.242H575.707ZM575.707 327.95C576.967 327.95 577.928 327.619 578.591 326.956C579.254 326.284 579.585 325.346 579.585 324.142C579.585 322.929 579.249 321.981 578.577 321.3C577.914 320.619 576.958 320.278 575.707 320.278H573.943V327.95H575.707ZM589.567 324.87C589.567 325.113 589.553 325.369 589.525 325.64H583.393C583.44 326.396 583.697 326.989 584.163 327.418C584.639 327.838 585.213 328.048 585.885 328.048C586.436 328.048 586.893 327.922 587.257 327.67C587.631 327.409 587.892 327.063 588.041 326.634H589.413C589.208 327.371 588.797 327.973 588.181 328.44C587.565 328.897 586.8 329.126 585.885 329.126C585.157 329.126 584.504 328.963 583.925 328.636C583.356 328.309 582.908 327.847 582.581 327.25C582.255 326.643 582.091 325.943 582.091 325.15C582.091 324.357 582.25 323.661 582.567 323.064C582.885 322.467 583.328 322.009 583.897 321.692C584.476 321.365 585.139 321.202 585.885 321.202C586.613 321.202 587.257 321.361 587.817 321.678C588.377 321.995 588.807 322.434 589.105 322.994C589.413 323.545 589.567 324.17 589.567 324.87ZM588.251 324.604C588.251 324.119 588.144 323.703 587.929 323.358C587.715 323.003 587.421 322.737 587.047 322.56C586.683 322.373 586.277 322.28 585.829 322.28C585.185 322.28 584.635 322.485 584.177 322.896C583.729 323.307 583.473 323.876 583.407 324.604H588.251ZM590.773 325.15C590.773 324.357 590.932 323.666 591.249 323.078C591.566 322.481 592.005 322.019 592.565 321.692C593.134 321.365 593.783 321.202 594.511 321.202C595.454 321.202 596.228 321.431 596.835 321.888C597.451 322.345 597.857 322.98 598.053 323.792H596.681C596.55 323.325 596.294 322.957 595.911 322.686C595.538 322.415 595.071 322.28 594.511 322.28C593.783 322.28 593.195 322.532 592.747 323.036C592.299 323.531 592.075 324.235 592.075 325.15C592.075 326.074 592.299 326.788 592.747 327.292C593.195 327.796 593.783 328.048 594.511 328.048C595.071 328.048 595.538 327.917 595.911 327.656C596.284 327.395 596.541 327.021 596.681 326.536H598.053C597.848 327.32 597.437 327.95 596.821 328.426C596.205 328.893 595.435 329.126 594.511 329.126C593.783 329.126 593.134 328.963 592.565 328.636C592.005 328.309 591.566 327.847 591.249 327.25C590.932 326.653 590.773 325.953 590.773 325.15Z" fill="black" fill-opacity="0.6"/>
<defs>
<linearGradient id="paint0_linear_26_565" x1="347.721" y1="127" x2="347.721" y2="310" gradientUnits="userSpaceOnUse">
<stop stop-color="#E2B950"/>
<stop offset="0.0001" stop-color="#E2B950"/>
<stop offset="1" stop-color="#E2B950" stop-opacity="0"/>
</linearGradient>
</defs>
</svg>
